<svg width="42" height="42" viewBox="0 0 42 42" fill="none" xmlns="http://www.w3.org/2000/svg">
<circle cx="21" cy="21" r="21" fill="#1B8354"/>
<path fill-rule="evenodd" clip-rule="evenodd" d="M18.7875 13.1824C18.4359 13.0505 18.0186 13.0391 16.7958 13.0391C15.8742 13.0391 15.2317 13.0398 14.733 13.0838C14.2441 13.1269 13.9653 13.2071 13.7551 13.3244C13.3908 13.5277 13.0901 13.8283 12.8868 14.1927C12.7695 14.4029 12.6893 14.6817 12.6462 15.1706C12.6022 15.6693 12.6016 16.3118 12.6016 17.2334V20.2891C12.6016 22.6674 12.6032 24.3756 12.7779 25.6756C12.9498 26.954 13.2767 27.7247 13.8464 28.2943C14.416 28.864 15.1867 29.1909 16.4651 29.3628C17.7651 29.5375 19.4733 29.5391 21.8516 29.5391H23.1016C24.8728 29.5391 26.1447 29.5382 27.1333 29.4377C28.1095 29.3384 28.726 29.1481 29.2127 28.8229C29.6768 28.5128 30.0752 28.1144 30.3853 27.6503C30.7106 27.1635 30.9008 26.5471 31.0001 25.5709C31.1007 24.5823 31.1016 23.3103 31.1016 21.5391C31.1016 20.4702 31.1007 19.7249 31.0422 19.1504C30.985 18.5885 30.8791 18.2737 30.7224 18.0391C30.5582 17.7934 30.3473 17.5825 30.1016 17.4183C29.867 17.2616 29.5522 17.1557 28.9903 17.0985C28.4158 17.04 27.6705 17.0391 26.6016 17.0391H21.8678C21.8574 17.0394 21.8469 17.0394 21.8365 17.0391H16.8516C16.4373 17.0391 16.1016 16.7034 16.1016 16.2891C16.1016 15.8749 16.4373 15.5391 16.8516 15.5391H20.638L20.5316 15.3264C19.9779 14.2188 19.6149 13.4927 18.7875 13.1824ZM22.3151 15.5391L21.8889 14.6869C21.8578 14.6246 21.8262 14.5607 21.794 14.4955C21.322 13.5404 20.7096 12.3012 19.3142 11.7779C18.6753 11.5383 17.9636 11.5386 16.9342 11.5391C16.8887 11.5391 16.8426 11.5391 16.7958 11.5391L16.7611 11.5391C15.8823 11.5391 15.1736 11.5391 14.6013 11.5896C14.0115 11.6416 13.4954 11.7515 13.0241 12.0145C12.4169 12.3534 11.9158 12.8545 11.577 13.4617C11.3139 13.933 11.204 14.4491 11.152 15.0388C11.1015 15.6112 11.1016 16.3199 11.1016 17.1987V20.3465C11.1015 22.6549 11.1015 24.464 11.2913 25.8754C11.4855 27.3202 11.8909 28.4602 12.7857 29.355C13.6805 30.2498 14.8205 30.6552 16.2653 30.8494C17.6768 31.0392 19.4858 31.0392 21.7942 31.0391H23.1438C24.8636 31.0392 26.2117 31.0392 27.2852 30.93C28.3799 30.8186 29.2718 30.5875 30.0461 30.0701C30.6739 29.6506 31.213 29.1115 31.6325 28.4837C32.1499 27.7093 32.381 26.8175 32.4924 25.7227C32.6016 24.6493 32.6016 23.3012 32.6016 21.5814V21.4987C32.6016 20.4797 32.6016 19.658 32.5345 18.9986C32.4653 18.3181 32.3184 17.7279 31.9696 17.2058C31.696 16.7963 31.3444 16.4447 30.9349 16.1711C30.4128 15.8223 29.8226 15.6754 29.1421 15.6062C28.4828 15.5391 27.661 15.5391 26.642 15.5391L22.3151 15.5391Z" fill="white"/>
</svg>
