<svg width="42" height="42" viewBox="0 0 42 42" fill="none" xmlns="http://www.w3.org/2000/svg">
<circle cx="21" cy="21" r="21" fill="#1B8354"/>
<path fill-rule="evenodd" clip-rule="evenodd" d="M20.6751 10.25H20.3245C19.579 10.25 18.9546 10.25 18.4453 10.3103C17.9052 10.3742 17.4194 10.5127 16.9819 10.8397C16.5466 11.165 16.2709 11.5935 16.0454 12.0964C15.8429 12.5477 15.6566 13.1171 15.4375 13.7984C15.0383 13.8204 14.67 13.8524 14.331 13.8988C13.2097 14.0524 12.2974 14.3771 11.5785 15.1096C10.8615 15.8402 10.5455 16.7641 10.3957 17.9C10.25 19.0042 10.25 20.4149 10.25 22.1947V22.3053C10.25 24.0851 10.25 25.4958 10.3957 26.6C10.5455 27.7359 10.8615 28.6598 11.5785 29.3904C12.2974 30.1229 13.2097 30.4476 14.331 30.6012C15.4174 30.75 16.8042 30.75 18.5483 30.75H20.0065C20.4207 30.75 20.7565 30.4142 20.7565 30C20.7565 29.5858 20.4207 29.25 20.0065 29.25H18.6055C16.7912 29.25 15.5074 29.2483 14.5346 29.1151C13.5849 28.985 13.044 28.7421 12.6491 28.3397C12.2522 27.9353 12.0114 27.3784 11.8828 26.4038C11.7515 25.4091 11.75 24.0975 11.75 22.25C11.75 20.4025 11.7515 19.0909 11.8828 18.0962C12.0114 17.1216 12.2522 16.5647 12.6491 16.1603C13.044 15.7579 13.5849 15.515 14.5346 15.3849C15.5074 15.2517 16.7912 15.25 18.6055 15.25H22.4082C24.2224 15.25 25.5062 15.2517 26.479 15.3849C27.4288 15.515 27.9696 15.7579 28.3646 16.1603C28.9865 16.7941 29.2039 17.7727 29.2502 20.0155C29.2587 20.4296 29.6013 20.7584 30.0155 20.7498C30.4296 20.7413 30.7584 20.3987 30.7498 19.9845C30.705 17.8091 30.5271 16.2223 29.4352 15.1096C28.7163 14.3771 27.8039 14.0524 26.6826 13.8988C26.3396 13.8518 25.9665 13.8197 25.5618 13.7977C25.3427 13.1167 25.1566 12.5475 24.9542 12.0964C24.7286 11.5935 24.4529 11.165 24.0177 10.8397C23.5802 10.5127 23.0943 10.3742 22.5542 10.3103C22.0449 10.25 21.4205 10.25 20.6751 10.25ZM23.9705 13.7543C23.8259 13.3158 23.7068 12.9806 23.5856 12.7103C23.4163 12.333 23.2737 12.1563 23.1196 12.0412C22.9679 11.9278 22.7678 11.846 22.3779 11.7999C21.9671 11.7512 21.4319 11.75 20.6313 11.75H20.3682C19.5676 11.75 19.0324 11.7512 18.6217 11.7999C18.2318 11.846 18.0316 11.9278 17.8799 12.0412C17.7259 12.1563 17.5832 12.333 17.414 12.7103C17.2927 12.9806 17.1736 13.3159 17.029 13.7544C17.5023 13.75 18.0082 13.75 18.5484 13.75H22.4653C23.0001 13.75 23.5013 13.75 23.9705 13.7543Z" fill="white"/>
<path fill-rule="evenodd" clip-rule="evenodd" d="M25.8998 21.4513C26.0266 21.3617 26.2288 21.25 26.5 21.25C26.7712 21.25 26.9734 21.3617 27.1002 21.4513C27.2016 21.523 27.304 21.6175 27.3801 21.6878L28.0564 22.3109L28.9697 22.2749C29.0719 22.2708 29.2099 22.2653 29.3325 22.2762C29.4859 22.2899 29.7101 22.3352 29.9156 22.5079C30.1211 22.6806 30.2043 22.8936 30.2442 23.0424C30.2761 23.1612 30.2944 23.2981 30.308 23.3996L30.4342 24.3371L31.1715 24.9175C31.2507 24.9797 31.3579 25.0639 31.4432 25.1507C31.55 25.2594 31.6895 25.4366 31.7354 25.6973C31.7813 25.9581 31.7107 26.1723 31.6474 26.3109C31.5969 26.4216 31.5249 26.5374 31.4718 26.6229L30.9711 27.4296L31.1698 28.3611C31.191 28.4602 31.2197 28.5942 31.2297 28.716C31.2423 28.8685 31.236 29.0952 31.1031 29.3258C30.9701 29.5565 30.7771 29.6755 30.6388 29.741C30.5284 29.7934 30.3981 29.8357 30.3017 29.867L29.4227 30.1532L28.993 30.9814C28.9456 31.073 28.8817 31.1965 28.811 31.2982C28.7225 31.4254 28.571 31.5989 28.3169 31.6915C28.0629 31.784 27.8352 31.7488 27.6857 31.7083C27.5662 31.676 27.4378 31.6226 27.3424 31.583L26.5 31.2336L25.6576 31.583C25.5623 31.6226 25.4338 31.676 25.3143 31.7083C25.1648 31.7488 24.9371 31.784 24.6831 31.6915C24.429 31.5989 24.2775 31.4254 24.189 31.2982C24.1183 31.1965 24.0544 31.073 24.007 30.9814L23.5773 30.1532L22.6983 29.867C22.602 29.8357 22.4716 29.7934 22.3612 29.741C22.2229 29.6755 22.0299 29.5565 21.8969 29.3258C21.764 29.0952 21.7577 28.8685 21.7703 28.716C21.7803 28.5942 21.809 28.4602 21.8302 28.3611L22.0289 27.4296L21.5282 26.6229C21.4751 26.5374 21.4031 26.4216 21.3526 26.3109C21.2893 26.1723 21.2187 25.9581 21.2646 25.6973C21.3105 25.4366 21.45 25.2594 21.5568 25.1507C21.6421 25.0639 21.7493 24.9797 21.8285 24.9175L22.5658 24.3371L22.692 23.3996C22.7056 23.2981 22.7239 23.1612 22.7558 23.0424C22.7957 22.8936 22.8789 22.6806 23.0844 22.5079C23.2899 22.3352 23.5141 22.2899 23.6675 22.2762C23.7901 22.2653 23.9281 22.2708 24.0303 22.2749L24.9436 22.3109L25.6199 21.6878C25.696 21.6175 25.7984 21.523 25.8998 21.4513ZM26.5 22.9165L25.9065 23.4633L25.8925 23.4764C25.8354 23.5309 25.6802 23.6786 25.4747 23.7542C25.2691 23.8298 25.0553 23.8179 24.9764 23.8135L24.9573 23.8125L24.1542 23.781L24.0429 24.6078L24.0406 24.6265C24.0315 24.7035 24.0068 24.9123 23.9002 25.099C23.7935 25.2858 23.6263 25.4132 23.5646 25.4601L23.5496 25.4716L22.8976 25.9848L23.3407 26.6988L23.3508 26.7146C23.3925 26.7795 23.5054 26.9551 23.5422 27.1657C23.5789 27.3763 23.5321 27.5798 23.5148 27.6549L23.5107 27.6732L23.3351 28.4968L24.1103 28.7493L24.1284 28.7549C24.2033 28.778 24.4062 28.8405 24.5718 28.9809C24.7373 29.1214 24.8321 29.3114 24.867 29.3815L24.8756 29.3985L25.2534 30.1267L25.9927 29.8201L26.0104 29.8125C26.0831 29.7809 26.2803 29.6953 26.5 29.6953C26.7197 29.6953 26.9169 29.7809 26.9896 29.8125L27.0073 29.8201L27.7466 30.1267L28.1244 29.3985L28.133 29.3815C28.1679 29.3114 28.2627 29.1214 28.4282 28.9809C28.5938 28.8404 28.7968 28.778 28.8716 28.7549L28.8897 28.7493L29.6649 28.4968L29.4893 27.6732L29.4852 27.6549C29.4679 27.5798 29.4211 27.3763 29.4578 27.1657C29.4946 26.9551 29.6075 26.7795 29.6492 26.7146L29.6593 26.6988L30.1024 25.9848L29.4504 25.4716L29.4354 25.4601C29.3737 25.4132 29.2065 25.2858 29.0998 25.099C28.9932 24.9123 28.9685 24.7035 28.9594 24.6265L28.9571 24.6078L28.8458 23.781L28.0427 23.8125L28.0236 23.8135C27.9447 23.8179 27.7309 23.8298 27.5253 23.7542C27.3198 23.6786 27.1646 23.5309 27.1075 23.4764L27.0935 23.4633L26.5 22.9165Z" fill="white"/>
</svg>
