<svg width="42" height="42" viewBox="0 0 42 42" fill="none" xmlns="http://www.w3.org/2000/svg">
<circle cx="21" cy="21" r="21" fill="#1B8354"/>
<path fill-rule="evenodd" clip-rule="evenodd" d="M24.683 11.4007L24.6184 11.3739C23.9931 11.1148 23.4112 10.8736 22.8718 10.7868C22.2432 10.6857 21.6691 10.7879 21.0721 11.1566C21.0237 11.1864 20.9521 11.2343 20.906 11.2675C20.2953 11.708 20.0022 12.2837 19.8689 12.9751C19.7496 13.5943 19.7497 14.3633 19.7498 15.2487L19.7498 17.4796C19.7497 18.395 19.7497 19.157 19.831 19.7617C19.9167 20.3993 20.1051 20.9731 20.5658 21.4339C21.0266 21.8946 21.6004 22.083 22.238 22.1687C22.8427 22.25 23.6047 22.25 24.5201 22.2499L26.751 22.2499C27.6364 22.25 28.4054 22.2501 29.0246 22.1308C29.716 21.9975 30.2917 21.7044 30.7322 21.0937C30.7654 21.0476 30.8133 20.976 30.8431 20.9276C31.2118 20.3306 31.314 19.7565 31.2129 19.1279C31.1261 18.5885 30.8849 18.0066 30.6258 17.3814L30.599 17.3167C30.0496 15.9905 29.2444 14.7854 28.2294 13.7703C27.2143 12.7553 26.0092 11.9501 24.683 11.4007ZM21.8602 12.4328C22.1497 12.254 22.3594 12.2236 22.6335 12.2678C22.9784 12.3232 23.3966 12.4915 24.109 12.7865C25.2532 13.2605 26.2929 13.9552 27.1687 14.831C28.0445 15.7068 28.7392 16.7465 29.2132 17.8907C29.5082 18.6031 29.6764 19.0213 29.7319 19.3662C29.7761 19.6403 29.7456 19.85 29.5669 20.1395C29.5558 20.1574 29.5279 20.1991 29.5156 20.2162C29.3466 20.4505 29.1456 20.5798 28.7408 20.6579C28.2796 20.7467 27.6564 20.7499 26.6829 20.7499H24.5723C23.5912 20.7499 22.9308 20.7483 22.4379 20.6821C21.9666 20.6187 21.7621 20.5088 21.6265 20.3732C21.4909 20.2376 21.381 20.0331 21.3176 19.5618C21.2514 19.0689 21.2498 18.4085 21.2498 17.4274V15.3168C21.2498 14.3433 21.253 13.7201 21.3418 13.2589C21.4199 12.8541 21.5492 12.6531 21.7835 12.4841C21.8006 12.4718 21.8423 12.4439 21.8602 12.4328Z" fill="white"/>
<path d="M17.3568 13.1869C17.7363 13.0209 17.9095 12.5787 17.7435 12.1992C17.5775 11.8197 17.1353 11.6466 16.7558 11.8125C10.2507 14.6572 8.73144 23.5006 13.6734 28.3966C18.7197 33.3961 27.4865 31.5278 30.1908 25.1191C30.3518 24.7375 30.173 24.2976 29.7914 24.1365C29.4097 23.9755 28.9698 24.1543 28.8088 24.5359C26.5101 29.9835 19.008 31.5702 14.7291 27.331C10.5271 23.1681 11.8387 15.5999 17.3568 13.1869Z" fill="white"/>
</svg>
