<svg width="42" height="42" viewBox="0 0 42 42" fill="none" xmlns="http://www.w3.org/2000/svg">
<circle cx="21" cy="21" r="21" fill="#1B8354"/>
<path fill-rule="evenodd" clip-rule="evenodd" d="M18.0003 10.75C15.3769 10.75 13.2503 12.8766 13.2503 15.5C13.2503 18.1234 15.3769 20.25 18.0003 20.25C20.6236 20.25 22.7503 18.1234 22.7503 15.5C22.7503 12.8766 20.6236 10.75 18.0003 10.75ZM14.7503 15.5C14.7503 13.7051 16.2054 12.25 18.0003 12.25C19.7952 12.25 21.2503 13.7051 21.2503 15.5C21.2503 17.2949 19.7952 18.75 18.0003 18.75C16.2054 18.75 14.7503 17.2949 14.7503 15.5Z" fill="white"/>
<path fill-rule="evenodd" clip-rule="evenodd" d="M22.8732 23.4501C19.8873 21.85 16.1133 21.85 13.1273 23.4501C13.0343 23.5 12.9178 23.5591 12.7849 23.6265C12.1925 23.9271 11.2738 24.3932 10.644 24.9481C10.2557 25.2901 9.83958 25.7785 9.76261 26.4123C9.67833 27.1061 10.0229 27.7168 10.606 28.2168C11.6009 29.0699 12.7927 29.75 14.326 29.75H21.6746C23.2079 29.75 24.3997 29.0699 25.3946 28.2168C25.9777 27.7168 26.3223 27.1061 26.238 26.4123C26.161 25.7785 25.7449 25.2901 25.3566 24.9481C24.7268 24.3932 23.8081 23.9271 23.2157 23.6265C23.0828 23.5591 22.9663 23.5 22.8732 23.4501ZM11.5824 27.0781C11.2289 26.775 11.2484 26.6191 11.2515 26.5941C11.2615 26.5121 11.339 26.3349 11.6355 26.0736C12.1048 25.6602 12.7786 25.316 13.371 25.0134C13.5341 24.9301 13.6911 24.8498 13.8359 24.7722C16.3793 23.4093 19.6213 23.4093 22.1647 24.7722C22.3095 24.8499 22.4665 24.93 22.6296 25.0134C23.222 25.316 23.8958 25.6602 24.3651 26.0736C24.6616 26.3349 24.739 26.5112 24.7489 26.5931C24.7521 26.6182 24.7716 26.775 24.4182 27.0781C23.5737 27.8022 22.7169 28.25 21.6746 28.25H14.326C13.2837 28.25 12.4269 27.8022 11.5824 27.0781Z" fill="white"/>
<path d="M24.6461 13.8044C24.8252 13.7689 25.0121 13.75 25.2049 13.75C26.6784 13.75 27.7501 14.8221 27.7501 16C27.7501 17.1779 26.6784 18.25 25.2049 18.25C25.0121 18.25 24.8252 18.2311 24.6461 18.1956C24.2398 18.115 23.8451 18.379 23.7645 18.7853C23.6839 19.1916 23.9479 19.5863 24.3542 19.6669C24.6292 19.7214 24.9139 19.75 25.2049 19.75C27.3712 19.75 29.2501 18.1358 29.2501 16C29.2501 13.8642 27.3712 12.25 25.2049 12.25C24.9139 12.25 24.6292 12.2786 24.3542 12.3331C23.9479 12.4137 23.6839 12.8084 23.7645 13.2147C23.8451 13.621 24.2398 13.885 24.6461 13.8044Z" fill="white"/>
<path d="M26.5001 22.25C26.0859 22.25 25.7501 22.5858 25.7501 23C25.7501 23.4142 26.0859 23.75 26.5001 23.75C26.8103 23.75 27.3484 23.8438 27.9794 24.0395C28.599 24.2318 29.2462 24.5032 29.7709 24.8174C30.3237 25.1484 30.6234 25.4575 30.7191 25.6752C30.7564 25.7602 30.7541 25.8104 30.7428 25.852C30.7287 25.9039 30.6781 26.0185 30.4928 26.1839C29.7443 26.8516 29.0008 27.25 28.1064 27.25H27.6162C27.202 27.25 26.8662 27.5858 26.8662 28C26.8662 28.4142 27.202 28.75 27.6162 28.75H28.1064C29.5118 28.75 30.5974 28.1006 31.4913 27.3032C31.8275 27.0034 32.08 26.6521 32.1905 26.2448C32.3037 25.8273 32.2475 25.425 32.0923 25.0718C31.8029 24.4132 31.1632 23.9027 30.5415 23.5305C29.8917 23.1414 29.1294 22.8258 28.4239 22.6069C27.7297 22.3915 27.0271 22.25 26.5001 22.25Z" fill="white"/>
</svg>
