<svg width="76" height="51" viewBox="0 0 76 51" fill="none" xmlns="http://www.w3.org/2000/svg">
<g clip-path="url(#clip0_127_25339)">
<path d="M45.6246 0.923828H44.7695V1.77949H45.6246V0.923828Z" fill="#A09993"/>
<path d="M63.398 11.5615H62.543V12.4172H63.398V11.5615Z" fill="#A09993"/>
<path d="M72.9322 10.6448C73.1424 10.5445 73.3117 10.4012 73.4403 10.2109C73.5689 10.0225 73.6587 9.79327 73.7117 9.52716C73.7648 9.25899 73.7913 8.95808 73.7913 8.62441V2.63477H72.9362V8.62441C72.9362 8.86596 72.924 9.07067 72.8995 9.23852C72.875 9.40638 72.8322 9.54148 72.7709 9.64588C72.7097 9.74824 72.6281 9.82398 72.526 9.87106C72.422 9.91814 72.2893 9.94066 72.126 9.94066C72.0485 9.94066 71.9791 9.93656 71.924 9.93042C71.8669 9.92428 71.7893 9.90586 71.6893 9.8772L71.4648 10.7001C71.6995 10.7656 71.9322 10.7963 72.1587 10.7963C72.4648 10.7943 72.722 10.7451 72.9322 10.6448Z" fill="#A09993"/>
<path d="M69.9943 1.11973H68.8209V0.921169C68.8209 0.812676 68.8433 0.728747 68.8903 0.669383C68.9291 0.620254 69.0209 0.595689 69.1535 0.595689H69.7413V0H69.1393C68.8127 0 68.5576 0.0859758 68.3862 0.25588C68.2128 0.425785 68.125 0.704182 68.125 1.07879V1.77683H69.9964V1.11973H69.9943Z" fill="#A09993"/>
<path d="M61.691 11.5615H60.8359V12.4172H61.691V11.5615Z" fill="#A09993"/>
<path d="M47.3355 0.922852H46.4805V1.77851H47.3355V0.922852Z" fill="#A09993"/>
<path d="M66.1428 7.76261C66.4673 7.99392 66.8428 8.16587 67.2693 8.27641C67.6958 8.38695 68.1489 8.44222 68.6264 8.44222H68.8529L69.1407 7.83835V8.68787C69.1407 9.13617 69.0121 9.45756 68.757 9.64998C68.4999 9.8424 68.1407 9.93861 67.6774 9.93861C67.4142 9.93861 67.1775 9.91405 66.9673 9.86287C66.7571 9.81374 66.5162 9.72777 66.2469 9.60699L65.9795 10.4299C66.3061 10.5507 66.5979 10.6428 66.8509 10.7022C67.104 10.7636 67.3591 10.7922 67.6142 10.7922C68.4468 10.7922 69.0529 10.5937 69.4305 10.1986C69.808 9.80146 69.9957 9.26923 69.9957 8.59985V2.63477H68.6284C68.1019 2.63477 67.6203 2.71051 67.1856 2.85994C66.7509 3.00937 66.3795 3.21408 66.0693 3.47405C65.7591 3.73403 65.5183 4.04518 65.3489 4.40546C65.1775 4.76574 65.0918 5.15672 65.0918 5.57636C65.0918 6.08198 65.1857 6.51596 65.3755 6.87624C65.5632 7.23447 65.8183 7.53129 66.1428 7.76261ZM66.1428 4.73094C66.2734 4.47506 66.4489 4.25602 66.6652 4.07384C66.8815 3.89165 67.1305 3.75245 67.4081 3.65215C67.6774 3.55593 67.957 3.50681 68.2468 3.50476V3.50066H69.6284L69.1407 3.74426V7.58656H68.2754C67.955 7.58656 67.655 7.54153 67.3734 7.45146C67.0917 7.36343 66.8448 7.23242 66.6305 7.06047C66.4163 6.88852 66.2489 6.67972 66.1285 6.42998C66.0081 6.18024 65.9469 5.8957 65.9469 5.57432C65.9448 5.26931 66.0122 4.98886 66.1428 4.73094Z" fill="#A09993"/>
<path d="M45.0056 10.6755H46.7811V10.0348C46.7974 10.0655 46.8158 10.0962 46.8341 10.1228C46.9627 10.3112 47.1321 10.4565 47.3423 10.5568C47.5525 10.6571 47.8096 10.7063 48.1157 10.7063H63.6969V2.63477H62.8419V9.85263H61.9541H48.1463C47.9831 9.85263 47.8484 9.83012 47.7463 9.78304C47.6443 9.73595 47.5606 9.66226 47.5015 9.55786C47.4423 9.45346 47.3994 9.31836 47.3729 9.1505C47.3484 8.98264 47.3362 8.77794 47.3362 8.53639V2.63477H45.026C42.6628 2.63477 41.0547 4.5119 41.0547 6.65516V6.67767C41.0547 8.82093 42.6424 10.6755 45.0056 10.6755ZM41.9649 6.63264C41.9649 4.86604 43.2301 3.44539 45.0036 3.44539H47.0035L46.479 3.70742V8.53639C46.479 8.8721 46.5056 9.17302 46.5586 9.43913C46.5892 9.59471 46.6341 9.73595 46.6913 9.86492H45.024C43.2485 9.86492 41.9628 8.42175 41.9628 6.65516V6.63264H41.9649Z" fill="#A09993"/>
<path d="M36.7809 8.55012L37.1523 9.53679L31.7259 2.62598H30.877V10.6586H31.7586V4.60342L31.2565 3.43251L36.9401 10.6586H37.6625V2.62598H36.7809V8.55012Z" fill="#A09993"/>
<path d="M48.9517 23.4962L53.8781 18.786V15.5537H40.7111V19.2322H47.4619L49.966 17.6192L43.7151 23.9138L44.3845 26.6446H46.1661C48.5599 26.6446 49.9802 27.5371 49.9802 29.1256V29.1809C49.9802 30.6302 48.8395 31.5493 47.2252 31.5493C45.2498 31.5493 43.858 30.7141 42.5213 29.2075L39.5703 32.0222C41.2397 34.0016 43.662 35.3936 47.1701 35.3936C51.5129 35.3936 54.1842 32.6895 54.1842 29.011V28.9557C54.1842 25.3345 51.5965 23.9425 48.9517 23.4962Z" fill="#A09993"/>
<path d="M25.3149 2.4873C22.8742 2.4873 21.2109 4.42585 21.2109 6.6428V6.66532C21.2109 8.88022 22.8497 10.7962 25.2925 10.7962C27.7353 10.7962 29.3964 8.8577 29.3964 6.6428V6.62028C29.3964 4.40538 27.7557 2.4873 25.3149 2.4873ZM28.4556 6.66532C28.4556 8.48923 27.1496 9.95901 25.3149 9.95901C23.4803 9.95901 22.1517 8.46671 22.1517 6.6428V6.62028C22.1517 4.79637 23.4599 3.32659 25.2925 3.32659C27.1271 3.32659 28.4556 4.81889 28.4556 6.6428V6.66532Z" fill="#A09993"/>
<path d="M65.6725 15.2178C59.6604 15.2178 55.2891 19.7602 55.2891 25.3056V25.3609C55.2891 30.9063 59.6032 35.3934 65.6153 35.3934C71.6274 35.3934 75.9987 30.851 75.9987 25.3056V25.2503C76.0007 19.7049 71.6866 15.2178 65.6725 15.2178ZM71.5192 25.3629C71.5192 28.7078 69.1254 31.4385 65.6725 31.4385C62.2215 31.4385 59.7706 28.6525 59.7706 25.3076V25.2524C59.7706 21.9075 62.1644 19.1768 65.6153 19.1768C69.0662 19.1768 71.5172 21.9628 71.5172 25.3076V25.3629H71.5192Z" fill="#A09993"/>
<path d="M19.6483 2.62598H18.7422V10.6586H19.6483V2.62598Z" fill="#A09993"/>
<path d="M4.19387 32.8329L5.02037 32.1942L9.27944 28.9025C12.7304 26.2271 14.4018 24.6119 14.4018 21.351V21.2957C14.4018 17.6438 11.7304 15.2754 7.69377 15.2754C4.21427 15.2754 2.34902 16.696 0.42866 19.3163L3.4347 21.7399C4.8816 19.957 5.91219 19.1218 7.41623 19.1218C8.9468 19.1218 10.0325 20.0143 10.0325 21.6581C10.0325 23.2732 9.08557 24.3335 6.66523 26.3397L0.179688 31.662V35.0621H14.5997V31.3549H7.16725L4.19387 32.8329Z" fill="#A09993"/>
<path d="M4.25295 10.7159L7.70387 2.62598H6.72839L4.00193 9.21131L4.08969 10.0936L3.86316 9.54498L1.502 3.82145L1.00814 2.62598H0L3.45093 10.7159H4.25295Z" fill="#A09993"/>
<path d="M9.83969 2.62695H8.93359V10.6595H9.83969V2.62695Z" fill="#A09993"/>
<path d="M14.6345 6.20654C12.8692 5.82783 12.457 5.4041 12.457 4.64669V4.62417C12.457 3.90157 13.1223 3.32839 14.1651 3.32839C14.9896 3.32839 15.7365 3.59246 16.4813 4.20043L17.0079 3.50035C16.1936 2.84529 15.3569 2.51367 14.1875 2.51367C12.6631 2.51367 11.5509 3.44303 11.5509 4.70605V4.72857C11.5509 6.04891 12.3998 6.6446 14.2447 7.04787C15.9303 7.40406 16.3303 7.82779 16.3303 8.57496V8.59748C16.3303 9.38969 15.6201 9.96286 14.5426 9.96286C13.4304 9.96286 12.6284 9.58415 11.7917 8.82675L11.2305 9.49204C12.1937 10.3538 13.2365 10.7776 14.5079 10.7776C16.1018 10.7776 17.2466 9.88302 17.2466 8.50536V8.48285C17.2487 7.25053 16.4222 6.59752 14.6345 6.20654Z" fill="#A09993"/>
<path d="M26.2438 13.9365L27.2295 14.8843L26.2826 15.871L25.2969 14.9232L26.2438 13.9365Z" fill="#0C0D5C"/>
<path d="M28.5 14.9232L29.4877 15.871L30.4346 14.8843L29.4469 13.9365L28.5 14.9232Z" fill="#A59F99"/>
<path d="M27.1113 16.1671L27.8807 16.906L28.6174 16.1363L27.8501 15.3994L27.1113 16.1671Z" fill="#C2DC18"/>
<path d="M29.9297 16.591L30.697 17.3279L31.4358 16.5603L30.6664 15.8213L29.9297 16.591Z" fill="#64AD22"/>
<path d="M25.8574 17.3439L26.6248 18.0829L27.3615 17.3132L26.5941 16.5742L25.8574 17.3439Z" fill="#C2DC18"/>
<path d="M28.4336 17.4347L29.2009 18.1717L29.9397 17.404L29.1703 16.665L28.4336 17.4347Z" fill="#49ACA0"/>
<path d="M27.4258 18.3188L27.9666 18.8388L28.4849 18.2963L27.9441 17.7764L27.4258 18.3188Z" fill="#64AD22"/>
<path d="M29.4648 18.726L30.0056 19.2459L30.524 18.7034L29.9832 18.1855L29.4648 18.726Z" fill="#52A73B"/>
<path d="M35.5941 14.3031L33.918 14.6113L34.2248 16.2906L35.9009 15.9824L35.5941 14.3031Z" fill="#3B6EB1"/>
<path d="M33.0734 15.0665L31.7285 15.3135L31.9744 16.6605L33.3193 16.4135L33.0734 15.0665Z" fill="#0A1250"/>
<path d="M35.675 16.943L34.3301 17.1904L34.5764 18.5374L35.9213 18.29L35.675 16.943Z" fill="#49ACA0"/>
<path d="M33.5224 17.1951L32.4746 17.3877L32.6662 18.4367L33.714 18.2442L33.5224 17.1951Z" fill="#C2DC18"/>
<path d="M35.5595 19.1873L34.5117 19.3799L34.7033 20.4289L35.7511 20.2363L35.5595 19.1873Z" fill="#A59F99"/>
<path d="M31.9541 17.6219L30.9062 17.8145L31.0978 18.8635L32.1457 18.6709L31.9541 17.6219Z" fill="#49ACA0"/>
<path d="M33.8525 18.9949L32.8047 19.1875L32.9963 20.2365L34.0441 20.044L33.8525 18.9949Z" fill="#64AD22"/>
<path d="M32.2093 19.179L31.4727 19.3145L31.6073 20.0514L32.344 19.9159L32.2093 19.179Z" fill="#A59F99"/>
<path d="M33.6235 20.7048L32.8867 20.8398L33.021 21.5768L33.7578 21.4418L33.6235 20.7048Z" fill="#52A73B"/>
<path d="M38.9026 20.1104L38.1699 21.6518L39.7107 22.3846L40.4413 20.8432L38.9026 20.1104Z" fill="#0C0D5C"/>
<path d="M36.7166 19.3984L36.1309 20.6349L37.3655 21.2224L37.9533 19.9859L36.7166 19.3984Z" fill="#49ACA0"/>
<path d="M37.7284 22.4434L37.1406 23.6798L38.3753 24.2673L38.963 23.0309L37.7284 22.4434Z" fill="#64AD22"/>
<path d="M36.1114 21.5166L35.6543 22.4787L36.6155 22.9372L37.0726 21.9731L36.1114 21.5166Z" fill="#C2DC18"/>
<path d="M36.5978 24.3252L36.1406 25.2873L37.1018 25.7458L37.559 24.7837L36.5978 24.3252Z" fill="#C2DC18"/>
<path d="M34.588 20.9434L34.1309 21.9055L35.0921 22.364L35.5492 21.3999L34.588 20.9434Z" fill="#3B6EB1"/>
<path d="M35.3282 23.1699L34.8711 24.132L35.8323 24.5906L36.2894 23.6264L35.3282 23.1699Z" fill="#A59F99"/>
<path d="M34.172 22.4902L33.8516 23.1678L34.5271 23.4892L34.8495 22.8137L34.172 22.4902Z" fill="#64AD22"/>
<path d="M34.4264 24.5549L34.1055 25.2314L34.7818 25.5543L35.1027 24.8777L34.4264 24.5549Z" fill="#49ACA0"/>
<path d="M39.7342 27.4902L38.2383 28.3111L39.0587 29.8075L40.5525 28.9866L39.7342 27.4902Z" fill="#3B6EB1"/>
<path d="M38.3757 25.6328L37.1777 26.2899L37.8349 27.4915L39.0348 26.8324L38.3757 25.6328Z" fill="#49ACA0"/>
<path d="M37.4187 28.6934L36.2188 29.3525L36.8779 30.5521L38.0758 29.895L37.4187 28.6934Z" fill="#49ACA0"/>
<path d="M36.6455 26.9941L35.7129 27.5059L36.2251 28.4414L37.1578 27.9276L36.6455 26.9941Z" fill="#0C0D5C"/>
<path d="M35.4015 29.5576L34.4668 30.0714L34.979 31.0049L35.9137 30.4931L35.4015 29.5576Z" fill="#52A73B"/>
<path d="M35.7472 25.6367L34.8125 26.1505L35.3247 27.084L36.2594 26.5722L35.7472 25.6367Z" fill="#0A1250"/>
<path d="M35.044 27.877L34.1113 28.3908L34.6236 29.3242L35.5562 28.8125L35.044 27.877Z" fill="#C2DC18"/>
<path d="M34.5028 26.6484L33.8457 27.0108L34.2069 27.6679L34.864 27.3076L34.5028 26.6484Z" fill="#A59F99"/>
<path d="M33.5048 28.4746L32.8477 28.8349L33.2068 29.492L33.864 29.1317L33.5048 28.4746Z" fill="#49ACA0"/>
<path d="M34.4001 33.747L34.1914 35.4414L35.8827 35.651L36.0913 33.9565L34.4001 33.747Z" fill="#64AD22"/>
<path d="M34.7226 31.4925L34.5547 32.8516L35.9116 33.0203L36.0795 31.6612L34.7226 31.4925Z" fill="#0A1250"/>
<path d="M32.1543 33.4144L31.9863 34.7734L33.3432 34.9421L33.5112 33.5831L32.1543 33.4144Z" fill="#49ACA0"/>
<path d="M32.8219 31.6223L32.6914 32.6807L33.7486 32.8118L33.879 31.7534L32.8219 31.6223Z" fill="#64AD22"/>
<path d="M30.3121 32.9728L30.1816 34.0312L31.2388 34.1624L31.3693 33.104L30.3121 32.9728Z" fill="#A59F99"/>
<path d="M32.8847 29.9934L32.7539 31.0518L33.8111 31.1832L33.9419 30.1248L32.8847 29.9934Z" fill="#A59F99"/>
<path d="M31.0077 31.3986L30.877 32.457L31.9341 32.5885L32.0649 31.5301L31.0077 31.3986Z" fill="#64AD22"/>
<path d="M31.5995 30.1256L31.5078 30.8691L32.2511 30.9614L32.3428 30.2179L31.5995 30.1256Z" fill="#A59F99"/>
<path d="M29.7206 31.0192L29.6289 31.7627L30.3722 31.8549L30.4638 31.1114L29.7206 31.0192Z" fill="#A59F99"/>
<path d="M29.3593 37.0758L28.1103 35.9131L26.9512 37.1659L28.2001 38.3265L29.3593 37.0758Z" fill="#C2DC18"/>
<path d="M29.1268 13.1705L27.8779 12.0078L26.7188 13.2586L27.9677 14.4213L29.1268 13.1705Z" fill="#64AD22"/>
<path d="M30.6904 35.2009L29.6884 34.2695L28.7578 35.2746L29.7619 36.204L30.6904 35.2009Z" fill="#49ACA0"/>
<path d="M27.4873 35.2537L26.4853 34.3223L25.5547 35.3274L26.5567 36.2567L27.4873 35.2537Z" fill="#64AD22"/>
<path d="M28.8556 33.9864L28.076 33.2617L27.3516 34.0416L28.1311 34.7663L28.8556 33.9864Z" fill="#3B6EB1"/>
<path d="M26.0314 33.6104L25.2518 32.8857L24.5273 33.6677L25.3069 34.3924L26.0314 33.6104Z" fill="#C2DC18"/>
<path d="M29.8556 32.7052L29.076 31.9785L28.3516 32.7605L29.1311 33.4851L29.8556 32.7052Z" fill="#C2DC18"/>
<path d="M27.5139 32.7443L26.7323 32.0176L26.0078 32.7995L26.7894 33.5242L27.5139 32.7443Z" fill="#A59F99"/>
<path d="M28.5044 31.8417L27.9554 31.332L27.4473 31.8806L27.9962 32.3924L28.5044 31.8417Z" fill="#0A1250"/>
<path d="M26.4614 31.4667L25.9124 30.957L25.4043 31.5077L25.9533 32.0174L26.4614 31.4667Z" fill="#A59F99"/>
<path d="M21.7411 33.9835L20.0703 34.3193L20.4048 35.9933L22.0756 35.6574L21.7411 33.9835Z" fill="#3B6EB1"/>
<path d="M23.9852 33.5744L22.6445 33.8438L22.9127 35.1865L24.2533 34.9172L23.9852 33.5744Z" fill="#49ACA0"/>
<path d="M21.3563 31.741L20.0156 32.0107L20.2842 33.3535L21.6248 33.0837L21.3563 31.741Z" fill="#64AD22"/>
<path d="M23.2672 31.8116L22.2227 32.0215L22.4315 33.0672L23.476 32.8573L23.2672 31.8116Z" fill="#C2DC18"/>
<path d="M24.8258 31.3575L23.7812 31.5674L23.9901 32.6131L25.0346 32.4032L24.8258 31.3575Z" fill="#0C0D5C"/>
<path d="M22.9039 30.0167L21.8594 30.2266L22.0682 31.2723L23.1127 31.0624L22.9039 30.0167Z" fill="#3B6EB1"/>
<path d="M24.2969 30.1807L23.5625 30.3281L23.709 31.0628L24.4435 30.9154L24.2969 30.1807Z" fill="#64AD22"/>
<path d="M22.8594 28.6794L22.125 28.8271L22.2719 29.5618L23.0063 29.414L22.8594 28.6794Z" fill="#A59F99"/>
<path d="M17.0022 30.2404L17.7083 28.6887L16.1574 27.9805L15.4492 29.5342L17.0022 30.2404Z" fill="#49ACA0"/>
<path d="M19.198 30.9191L19.7653 29.6725L18.5205 29.1055L17.9531 30.3501L19.198 30.9191Z" fill="#C2DC18"/>
<path d="M18.1355 27.8889L18.7028 26.6443L17.458 26.0752L16.8906 27.3218L18.1355 27.8889Z" fill="#3B6EB1"/>
<path d="M19.24 27.3764L18.7988 28.3467L19.768 28.79L20.2092 27.8197L19.24 27.3764Z" fill="#49ACA0"/>
<path d="M21.067 31.2152L21.5078 30.2449L20.5385 29.8027L20.0977 30.773L21.067 31.2152Z" fill="#A59F99"/>
<path d="M18.7089 24.5766L18.2676 25.5469L19.2368 25.9904L19.6781 25.0201L18.7089 24.5766Z" fill="#0C0D5C"/>
<path d="M20.7734 27.9252L20.332 28.8955L21.3012 29.3391L21.7426 28.3688L20.7734 27.9252Z" fill="#52A73B"/>
<path d="M19.9964 25.7115L19.5547 26.6816L20.5237 27.1255L20.9653 26.1554L19.9964 25.7115Z" fill="#C2DC18"/>
<path d="M21.6933 27.782L22.0035 27.0983L21.3219 26.7871L21.0117 27.4708L21.6933 27.782Z" fill="#0A1250"/>
<path d="M21.4044 25.7213L21.7146 25.0376L21.0329 24.7285L20.7207 25.4102L21.4044 25.7213Z" fill="#64AD22"/>
<path d="M16.048 22.8763L17.5296 22.0329L16.6847 20.5488L15.2031 21.3943L16.048 22.8763Z" fill="#49ACA0"/>
<path d="M17.4353 24.7117L18.6231 24.0321L17.9455 22.8428L16.7578 23.5224L17.4353 24.7117Z" fill="#64AD22"/>
<path d="M18.3435 21.6325L19.5333 20.955L18.8537 19.7656L17.666 20.4432L18.3435 21.6325Z" fill="#0A1250"/>
<path d="M19.1457 23.3217L20.0702 22.7915L19.5417 21.8662L18.6172 22.3943L19.1457 23.3217Z" fill="#3B6EB1"/>
<path d="M20.3489 20.7366L21.2733 20.2085L20.7448 19.2832L19.8203 19.8113L20.3489 20.7366Z" fill="#64AD22"/>
<path d="M20.0656 24.6625L20.9921 24.1343L20.4635 23.207L19.5391 23.7352L20.0656 24.6625Z" fill="#49ACA0"/>
<path d="M20.7296 22.4114L21.6541 21.8833L21.1276 20.958L20.2031 21.4861L20.7296 22.4114Z" fill="#C2DC18"/>
<path d="M21.2913 23.6309L21.9423 23.2584L21.5709 22.6074L20.9199 22.9779L21.2913 23.6309Z" fill="#A59F99"/>
<path d="M22.262 21.7891L22.913 21.4186L22.5416 20.7656L21.8906 21.1382L22.262 21.7891Z" fill="#64AD22"/>
<path d="M19.763 14.6502L19.582 16.3477L21.2764 16.5294L21.4573 14.8319L19.763 14.6502Z" fill="#64AD22"/>
<path d="M19.7781 17.2848L19.6328 18.6465L20.9923 18.7924L21.1376 17.4307L19.7781 17.2848Z" fill="#A59F99"/>
<path d="M22.3152 15.3219L22.1699 16.6836L23.5294 16.8295L23.6747 15.4679L22.3152 15.3219Z" fill="#49ACA0"/>
<path d="M21.9453 17.4591L21.832 18.5195L22.8912 18.6333L23.0045 17.5729L21.9453 17.4591Z" fill="#C2DC18"/>
<path d="M24.4312 16.0664L24.3184 17.127L25.3777 17.2403L25.4905 16.1798L24.4312 16.0664Z" fill="#3B6EB1"/>
<path d="M21.9101 19.0861L21.7969 20.1465L22.8561 20.2603L22.9693 19.1999L21.9101 19.0861Z" fill="#49ACA0"/>
<path d="M23.7636 17.6505L23.6504 18.7109L24.7096 18.8247L24.8228 17.7643L23.7636 17.6505Z" fill="#64AD22"/>
<path d="M23.4721 19.2834L23.3926 20.0283L24.1373 20.1083L24.2167 19.3633L23.4721 19.2834Z" fill="#0A1250"/>
<path d="M25.3368 18.3585L25.2578 19.1035L26.0026 19.183L26.0816 18.438L25.3368 18.3585Z" fill="#A59F99"/>
<path d="M33.2992 26.2165C33.1727 26.1448 32.9421 26.0241 32.6237 25.9237C32.1646 25.7764 31.5238 25.6658 30.7646 25.7866C30.5095 25.8275 30.2401 25.8951 29.9605 25.9954C29.934 26.0056 29.9075 26.0138 29.881 26.0241C29.7381 26.0773 29.5973 26.1428 29.4544 26.2144C29.334 26.2758 29.2116 26.3434 29.0912 26.4171C28.8157 26.5829 28.5443 26.7712 28.281 26.9759C27.981 25.1561 28.1279 23.4673 28.1973 22.6382C28.1973 22.6342 28.2035 22.6321 28.2075 22.6342C28.8504 23.0395 28.6708 24.1715 28.5341 24.497C28.532 24.5031 28.5402 24.5072 28.5463 24.5031C29.3463 23.5553 28.9565 22.5072 28.7912 22.2432C28.7871 22.237 28.7953 22.2309 28.8014 22.235C28.9177 22.3291 29.0116 22.4294 29.0912 22.5318C29.3381 22.8491 29.4299 23.1909 29.4544 23.4939C29.4667 23.6536 29.4626 23.801 29.4544 23.9279C29.4524 23.9627 29.4504 23.9934 29.4463 24.0241C29.4463 24.0282 29.4504 24.0302 29.4544 24.0282C29.4565 24.0282 29.4585 24.0282 29.4585 24.0261C29.6748 23.6004 29.7789 22.9576 29.4544 22.3332C29.3667 22.1633 29.2483 21.9955 29.0912 21.8338C29.0463 21.7867 28.9973 21.7416 28.9463 21.6946C28.9422 21.6905 28.9463 21.6823 28.9524 21.6843C29.0014 21.6966 29.0463 21.7109 29.0912 21.7253C29.2279 21.7723 29.3483 21.8379 29.4544 21.9177C29.6973 22.0978 29.8626 22.3435 29.9605 22.6014C30.0422 22.8143 30.0789 23.0333 30.0789 23.2278C30.0789 23.236 30.0891 23.236 30.0912 23.2298C30.2422 22.6751 30.1503 22.2554 29.9605 21.9504C29.8259 21.7314 29.6401 21.5717 29.4544 21.4591C29.3279 21.3834 29.2014 21.3302 29.0912 21.2974C29.0259 21.277 28.9687 21.2647 28.9177 21.2585C28.9096 21.2585 28.9116 21.2463 28.9198 21.2463C28.9789 21.2401 29.0361 21.2381 29.0912 21.236C29.2259 21.234 29.3463 21.2463 29.4544 21.2647C29.6687 21.3056 29.8361 21.3793 29.9605 21.4653C30.1646 21.6024 30.2667 21.7642 30.3014 21.8297C30.3054 21.8358 30.3136 21.8317 30.3136 21.8256C30.285 21.5328 30.1503 21.3036 29.9626 21.1398C29.8177 21.0129 29.6401 20.9249 29.4565 20.8716C29.3361 20.8389 29.2136 20.8205 29.0932 20.8184C28.93 20.8164 28.7728 20.843 28.6402 20.9003C28.6341 20.9024 28.63 20.8962 28.632 20.8901C28.7504 20.7202 28.9177 20.6178 29.0932 20.5625C29.2157 20.5257 29.3402 20.5114 29.4565 20.5196C29.5687 20.5257 29.6708 20.5503 29.7544 20.5892C29.7606 20.5912 29.7646 20.5851 29.7606 20.5789C29.6687 20.4745 29.5646 20.3926 29.4565 20.3312C29.3402 20.2657 29.2177 20.2268 29.0932 20.2125C28.7687 20.1757 28.4381 20.3149 28.2177 20.6485C28.2157 20.6526 28.2096 20.6526 28.2075 20.6485C28.1647 20.5728 28.1239 20.4889 28.0871 20.4008C27.9994 20.1961 27.9279 19.9669 27.8892 19.7376C27.8871 19.7294 27.879 19.7294 27.879 19.7376C27.8402 19.9669 27.7667 20.1982 27.679 20.4029C27.6402 20.4909 27.6014 20.5728 27.5586 20.6465C27.5565 20.6506 27.5504 20.6506 27.5484 20.6465C27.1647 20.0631 26.4443 20.0753 26.0056 20.5789C26.0015 20.583 26.0055 20.5912 26.0117 20.5892C26.3035 20.45 26.8565 20.4909 27.1341 20.8901C27.1382 20.8962 27.1321 20.9024 27.1259 20.9003C26.6994 20.7202 26.0382 20.8368 25.6852 21.2585C25.5586 21.408 25.4729 21.5983 25.4505 21.8256C25.4505 21.8317 25.4586 21.8358 25.4627 21.8297C25.4892 21.7785 25.5586 21.6679 25.6852 21.5554C25.8913 21.3732 26.2504 21.1889 26.8443 21.2442C26.8525 21.2463 26.8525 21.2565 26.8463 21.2565C26.5423 21.2933 25.9158 21.5656 25.6852 22.1879C25.5831 22.4622 25.5566 22.8061 25.6709 23.2278C25.6729 23.2339 25.6831 23.2339 25.6831 23.2257C25.6831 23.2155 25.6831 23.2073 25.6852 23.1971C25.6913 22.6321 26.0137 21.8747 26.8117 21.6823C26.8178 21.6802 26.8219 21.6884 26.8178 21.6925C25.926 22.4786 26.0137 23.4489 26.3055 24.022C26.3076 24.0282 26.3178 24.0261 26.3178 24.018C26.279 23.584 26.2484 22.8122 26.9627 22.2288C26.9688 22.2247 26.977 22.2309 26.9729 22.237C26.8076 22.5031 26.4178 23.5492 27.2178 24.497C27.2218 24.5031 27.232 24.499 27.23 24.4908C27.0953 24.1674 26.9157 23.0333 27.5565 22.628C27.5606 22.626 27.5667 22.628 27.5667 22.6321C27.6361 23.4612 27.7831 25.15 27.4831 26.9698C26.9667 26.5727 26.4219 26.2247 25.8831 26.02C25.8158 25.9954 25.7505 25.9729 25.6872 25.9504C25.1301 25.7661 24.6199 25.7149 24.175 25.7354C23.4607 25.7661 22.9138 25.9811 22.6138 26.1305C22.5526 26.1612 22.5016 26.1899 22.4628 26.2124C22.4465 26.2226 22.4587 26.2451 22.475 26.239C22.522 26.2247 22.5669 26.2103 22.6138 26.1981C23.1628 26.0425 23.6832 26.0015 24.175 26.0445C24.7117 26.0916 25.2158 26.239 25.6872 26.4519C26.3484 26.7508 26.9463 27.1765 27.4871 27.6269C26.7239 28.2942 26.079 28.9431 25.6872 29.1704C25.6668 29.1806 25.6484 29.1929 25.63 29.2031C25.5362 29.0741 25.3729 29.0005 25.1954 29.0393C25.0403 29.0741 24.9137 29.199 24.8791 29.3525C24.8484 29.4897 24.8831 29.6391 24.9607 29.7169C25.1688 29.9257 25.4096 29.94 25.6872 29.8234C26.2157 29.6002 26.8729 28.9001 27.679 28.1591C27.7463 28.0977 27.8137 28.0342 27.8831 27.9728C27.9524 28.0342 28.0198 28.0957 28.0871 28.1571C28.4524 28.4928 28.7871 28.8203 29.0932 29.0987C29.2197 29.2133 29.3402 29.3198 29.4565 29.414C29.6361 29.5613 29.8054 29.6821 29.9626 29.766C30.2707 29.9298 30.5381 29.9503 30.7666 29.7476C30.7789 29.7374 30.7911 29.7272 30.8034 29.7149C30.8564 29.6616 30.9177 29.4876 30.885 29.3505C30.8666 29.2707 30.8238 29.199 30.7646 29.1437C30.7115 29.0926 30.6422 29.0537 30.5687 29.0373C30.3911 28.9984 30.2279 29.0721 30.134 29.2011C30.081 29.1744 30.0238 29.1376 29.9605 29.0946C29.8157 28.9943 29.6463 28.8531 29.4544 28.6852C29.3402 28.5849 29.2197 28.4744 29.0912 28.3577C28.8422 28.1305 28.5687 27.8807 28.279 27.6248C28.5361 27.4099 28.8075 27.2011 29.0912 27.0087C29.2095 26.9288 29.33 26.8511 29.4544 26.7774C29.6197 26.6791 29.7871 26.589 29.9605 26.5051C30.2197 26.3802 30.4871 26.2758 30.7646 26.196C31.3401 26.0302 31.9585 25.9749 32.6237 26.0814C32.8401 26.1162 33.0605 26.1673 33.287 26.2369C33.3033 26.2472 33.3156 26.2247 33.2992 26.2165Z" fill="#605E65"/>
<path d="M4.46101 44.8057H3.95898V45.3092H4.46101V44.8057Z" fill="#A09993"/>
<path d="M37.7582 44.2238V40.8994H37.2684V43.7325H35.4215V40.8994H34.9317V43.7325H32.9869V40.8994H32.2175C31.9114 40.8994 31.6339 40.9404 31.3849 41.0243C31.1359 41.1082 30.9237 41.2249 30.7482 41.3723C30.5727 41.5217 30.438 41.6978 30.3421 41.9025C30.2462 42.1072 30.1992 42.3262 30.1992 42.5637C30.1992 42.8543 30.2543 43.102 30.3645 43.3108C30.4747 43.5196 30.6217 43.6895 30.8053 43.8246C30.989 43.9597 31.2033 44.06 31.4482 44.1235C31.6931 44.189 31.9502 44.2218 32.2196 44.2218H37.7582V44.2238ZM31.5012 43.6547C31.34 43.6015 31.1992 43.5258 31.0788 43.4255C30.9584 43.3252 30.8645 43.2023 30.7951 43.059C30.7257 42.9137 30.691 42.7499 30.691 42.5657C30.691 42.3897 30.7298 42.23 30.8053 42.0846C30.8808 41.9393 30.9808 41.8165 31.1053 41.7121C31.2298 41.6077 31.3706 41.5279 31.5298 41.4726C31.689 41.4173 31.8522 41.3907 32.0196 41.3907H32.5032V43.7346H32.0196C31.8339 43.7325 31.6624 43.708 31.5012 43.6547Z" fill="#A09993"/>
<path d="M27.7847 39.8291H27.2949V44.2221H27.7847V39.8291Z" fill="#A09993"/>
<path d="M32.9864 39.8291H32.4844V40.3327H32.9864V39.8291Z" fill="#A09993"/>
<path d="M37.7637 44.7988H37.2617V45.3024H37.7637V44.7988Z" fill="#A09993"/>
<path d="M5.31648 44.8057H4.81445V45.3092H5.31648V44.8057Z" fill="#A09993"/>
<path d="M25.3807 43.7328H24.5808C24.2951 43.7328 24.0706 43.6919 23.9073 43.61C23.7441 43.5281 23.6155 43.4053 23.5216 43.2436C23.5502 43.1166 23.5645 42.9631 23.5645 42.785V41.2047H23.0747V42.8628C23.0747 43.1453 22.9992 43.3705 22.8482 43.5404C22.6971 43.7103 22.4686 43.7942 22.1625 43.7942C22.0196 43.7942 21.889 43.7717 21.7706 43.7267C21.6523 43.6816 21.5502 43.6202 21.4645 43.5424C21.3788 43.4646 21.3115 43.3746 21.2625 43.2702C21.2135 43.1658 21.187 43.0552 21.1829 42.9365V41.2047H20.6931V42.8997C20.6931 43.0511 20.6707 43.1781 20.6258 43.2825C20.5809 43.3869 20.5196 43.4728 20.4421 43.5404C20.3646 43.6079 20.2768 43.6571 20.1788 43.6878C20.0809 43.7185 19.9768 43.7328 19.8666 43.7328H18.9197V41.2047H18.4299V43.7328H15.8667L16.7218 41.6817C16.5912 41.567 16.4524 41.4606 16.3055 41.3603C16.1585 41.26 16.0075 41.172 15.8524 41.0962C15.6973 41.0205 15.5402 40.9611 15.381 40.9181C15.2218 40.8751 15.0647 40.8547 14.9096 40.8547C14.7504 40.8547 14.5912 40.8772 14.4321 40.9181C14.2729 40.9611 14.1157 41.0184 13.9586 41.0921C13.8015 41.1658 13.6504 41.2538 13.5056 41.3562C13.3607 41.4585 13.226 41.565 13.0994 41.6796L13.9606 43.7308H12.2668V40.8997H11.4893C11.1872 40.8997 10.9117 40.9427 10.6628 41.0287C10.4138 41.1146 10.2016 41.2313 10.024 41.3808C9.84647 41.5302 9.70973 41.7083 9.61178 41.913C9.51382 42.1197 9.46484 42.3429 9.46484 42.5844C9.46484 42.8751 9.5179 43.1228 9.62606 43.3275C9.73422 43.5342 9.88116 43.7041 10.0669 43.8352C10.2526 43.9682 10.4669 44.0665 10.7117 44.1279C10.9566 44.1913 11.2158 44.2221 11.4893 44.2221H11.7831V44.3633C11.7831 44.6212 11.7097 44.8034 11.5627 44.914C11.4158 45.0245 11.2097 45.0798 10.9444 45.0798C10.7934 45.0798 10.6587 45.0654 10.5383 45.0368C10.4179 45.0081 10.2811 44.959 10.1261 44.8894L9.97299 45.3602C10.1607 45.4298 10.326 45.481 10.4709 45.5158C10.6158 45.5506 10.7607 45.569 10.9077 45.569C11.3852 45.569 11.7301 45.4564 11.9464 45.2292C12.1627 45.002 12.2709 44.697 12.2709 44.3142V44.2221H19.8707C20.1074 44.2221 20.3176 44.1709 20.5033 44.0685C20.689 43.9662 20.838 43.829 20.9523 43.6591C21.0707 43.8556 21.2319 44.0092 21.436 44.1177C21.64 44.2282 21.8829 44.2835 22.1645 44.2835C22.4584 44.2835 22.7073 44.2323 22.9135 44.1299C23.1196 44.0276 23.2767 43.872 23.3869 43.6591C23.4277 43.7287 23.4767 43.7963 23.5359 43.8638C23.5951 43.9314 23.6706 43.9907 23.7645 44.044C23.8583 44.0972 23.9726 44.1402 24.1032 44.1729C24.2032 44.1975 24.3236 44.2098 24.4542 44.2159V44.2221H25.8664V39.8291H25.3767V43.7328H25.3807ZM11.7831 43.7328H11.2872C11.1036 43.7328 10.9322 43.7082 10.7709 43.6571C10.6097 43.6059 10.4689 43.5322 10.3465 43.4339C10.224 43.3357 10.1281 43.2149 10.0587 43.0737C9.98932 42.9304 9.95463 42.7666 9.95463 42.5844C9.95463 42.4084 9.99136 42.2487 10.0669 42.1013C10.1424 41.9539 10.2424 41.8291 10.3669 41.7247C10.4913 41.6203 10.6322 41.5404 10.7913 41.4831C10.9505 41.4258 11.1158 41.3971 11.2872 41.3971H11.7831V43.7328ZM14.479 43.7328L13.7157 41.8536C13.9035 41.694 14.0953 41.5773 14.2933 41.5056C14.4912 41.4319 14.6974 41.3951 14.9137 41.3951C15.1341 41.3951 15.3524 41.4381 15.5688 41.5261C15.7851 41.6141 15.9688 41.7226 16.1198 41.8536L15.3565 43.7328H14.479Z" fill="#A09993"/>
<path d="M2.78523 39.8291H2.2832V40.3327H2.78523V39.8291Z" fill="#A09993"/>
<path d="M52.2598 39.8291H51.7578V40.3327H52.2598V39.8291Z" fill="#A09993"/>
<path d="M47.9156 39.8291H47.4258V44.2221H47.9156V39.8291Z" fill="#A09993"/>
<path d="M32.1309 39.8291H31.6289V40.3327H32.1309V39.8291Z" fill="#A09993"/>
<path d="M8.68985 42.2954C8.68985 42.103 8.66536 41.9249 8.6123 41.757C8.56128 41.5892 8.48373 41.4479 8.37761 41.3292C8.247 41.1859 8.10211 41.0795 7.94089 41.0078C7.77967 40.9362 7.58376 40.9014 7.35111 40.9014H6.98989V41.3906H7.41845C7.53682 41.3906 7.64906 41.4172 7.75518 41.4664C7.8613 41.5175 7.94905 41.583 8.01844 41.6649C8.08782 41.7509 8.13476 41.8451 8.16129 41.9474C8.18782 42.0498 8.20211 42.1726 8.20211 42.3138V43.7345H5.90625V44.2237H8.68781V42.2954H8.68985Z" fill="#A09993"/>
<path d="M73.7945 39.8291H73.3047V44.2221H73.7945V39.8291Z" fill="#A09993"/>
<path d="M53.1173 39.8291H52.6152V40.3327H53.1173V39.8291Z" fill="#A09993"/>
<path d="M71.8804 39.8291H71.3906V43.7328H69.7091C69.8111 43.5076 69.8621 43.2681 69.8621 43.0102C69.8621 42.7584 69.8152 42.521 69.7254 42.304C69.6336 42.0849 69.5091 41.8966 69.3499 41.739C69.1907 41.5793 69.003 41.4545 68.7846 41.3623C68.5662 41.2702 68.3315 41.2252 68.0785 41.2252C67.8336 41.2252 67.605 41.2723 67.3928 41.3664C67.1806 41.4606 66.9969 41.5875 66.8397 41.7492C66.6826 41.9109 66.5602 42.0993 66.4704 42.3163C66.3806 42.5332 66.3357 42.7646 66.3357 43.0143C66.3357 43.1453 66.35 43.2702 66.3765 43.391C66.403 43.5117 66.4377 43.6264 66.4826 43.7369H64.9663C65.0684 43.5117 65.1194 43.2722 65.1194 43.0143C65.1194 42.7625 65.0725 42.5251 64.9827 42.3081C64.8908 42.089 64.7663 41.9007 64.6072 41.7431C64.448 41.5834 64.2602 41.4585 64.0419 41.3664C63.8235 41.2743 63.5888 41.2293 63.3358 41.2293C63.0909 41.2293 62.8643 41.2764 62.6521 41.3705C62.4399 41.4647 62.2562 41.5916 62.0991 41.7533C61.9419 41.915 61.8195 42.1034 61.7297 42.3204C61.6399 42.5373 61.595 42.7687 61.595 43.0184C61.595 43.1494 61.6093 43.2743 61.6358 43.395C61.6623 43.5158 61.697 43.6305 61.7419 43.741H60.1889V39.8373H59.6991V43.741H58.14V42.9918C58.14 42.8035 58.1155 42.6254 58.0665 42.4555C58.0175 42.2855 57.94 42.1423 57.8339 42.0235C57.7073 41.8802 57.5645 41.7738 57.4053 41.7042C57.2461 41.6346 57.0441 41.5998 56.7992 41.5998H54.6319L55.5523 39.8352H55.0197L54.0809 41.5937C54.0972 41.7001 54.1217 41.7922 54.1585 41.87C54.1952 41.9478 54.2401 42.0215 54.3013 42.0911H56.7951C56.9502 42.0911 57.0829 42.1136 57.1951 42.1627C57.3074 42.2098 57.3971 42.2733 57.4665 42.3552C57.5359 42.437 57.5829 42.5312 57.6073 42.6376C57.6318 42.7441 57.6441 42.8628 57.6441 42.9918V43.741H53.1197V40.8997H52.3483C52.0422 40.8997 51.7646 40.9406 51.5177 41.0246C51.2687 41.1085 51.0565 41.2252 50.881 41.3726C50.7055 41.522 50.5708 41.698 50.4749 41.9028C50.379 42.1075 50.332 42.3265 50.332 42.5639C50.332 42.8546 50.3871 43.1023 50.4973 43.3111C50.6075 43.5199 50.7545 43.6898 50.9381 43.8249C51.1218 43.96 51.3361 44.0603 51.581 44.1238C51.8259 44.1893 52.083 44.2221 52.3503 44.2221H62.0542C62.2133 44.394 62.4011 44.5291 62.6195 44.6294C62.8378 44.7297 63.0745 44.7788 63.3317 44.7788C63.5929 44.7788 63.8358 44.7297 64.0623 44.6315C64.2888 44.5332 64.4827 44.396 64.6459 44.2221H66.7989C66.9581 44.394 67.1459 44.5291 67.3642 44.6294C67.5826 44.7297 67.8193 44.7788 68.0764 44.7788C68.3377 44.7788 68.5805 44.7297 68.807 44.6315C69.0336 44.5332 69.2274 44.396 69.3907 44.2221H71.8784V39.8291H71.8804ZM52.632 43.7328H52.1483C51.9646 43.7328 51.7932 43.7062 51.632 43.653C51.4708 43.5998 51.33 43.524 51.2096 43.4237C51.0892 43.3234 50.9953 43.2006 50.9259 43.0573C50.8565 42.9119 50.8218 42.7482 50.8218 42.5639C50.8218 42.3879 50.8585 42.2282 50.9341 42.0829C51.0096 41.9376 51.1096 41.8147 51.234 41.7103C51.3585 41.6059 51.4993 41.5261 51.6585 41.4708C51.8177 41.4156 51.981 41.3889 52.1483 41.3889H52.632V43.7328ZM64.5276 43.5158C64.4602 43.6734 64.3684 43.8086 64.2521 43.9232C64.1357 44.0378 63.999 44.1258 63.8419 44.1893C63.6847 44.2528 63.5153 44.2835 63.3317 44.2835C63.1521 44.2835 62.9868 44.2487 62.8337 44.1832C62.6807 44.1156 62.548 44.0235 62.4358 43.9068C62.3235 43.7901 62.2358 43.655 62.1725 43.4994C62.1093 43.3439 62.0787 43.1781 62.0787 43.0041C62.0787 42.828 62.1113 42.6622 62.1725 42.5046C62.2358 42.347 62.3235 42.2119 62.4337 42.0952C62.5439 41.9785 62.6746 41.8864 62.8276 41.8168C62.9807 41.7472 63.148 41.7124 63.3317 41.7124C63.5194 41.7124 63.6909 41.7451 63.848 41.8106C64.0051 41.8761 64.1419 41.9662 64.2582 42.0808C64.3745 42.1955 64.4643 42.3306 64.5296 42.4882C64.5949 42.6458 64.6276 42.8178 64.6276 43.0061C64.6276 43.1883 64.5949 43.3602 64.5276 43.5158ZM69.2723 43.5158C69.205 43.6734 69.1132 43.8086 68.9968 43.9232C68.8805 44.0378 68.7438 44.1258 68.5866 44.1893C68.4295 44.2528 68.2601 44.2835 68.0764 44.2835C67.8969 44.2835 67.7316 44.2487 67.5785 44.1832C67.4255 44.1156 67.2928 44.0235 67.1806 43.9068C67.0683 43.7901 66.9806 43.655 66.9173 43.4994C66.854 43.3439 66.8214 43.1781 66.8214 43.0041C66.8214 42.828 66.854 42.6622 66.9173 42.5046C66.9806 42.347 67.0663 42.2119 67.1765 42.0952C67.2867 41.9785 67.4173 41.8864 67.5703 41.8168C67.7234 41.7472 67.8907 41.7124 68.0744 41.7124C68.2622 41.7124 68.4336 41.7451 68.5907 41.8106C68.7479 41.8761 68.8846 41.9662 69.0009 42.0808C69.1172 42.1955 69.207 42.3306 69.2723 42.4882C69.3376 42.6458 69.3703 42.8178 69.3703 43.0061C69.3723 43.1883 69.3397 43.3602 69.2723 43.5158Z" fill="#A09993"/>
<path d="M1.24682 44.1256C1.49171 44.1911 1.74884 44.2238 2.01618 44.2238H5.22018V40.8994H4.7304V43.7325H2.78555V40.8994H2.01823C1.71211 40.8994 1.43661 40.9404 1.18764 41.0243C0.938663 41.1082 0.726423 41.2249 0.550918 41.3723C0.375412 41.5217 0.240722 41.6978 0.144806 41.9025C0.0488906 42.1072 0.00195312 42.3262 0.00195312 42.5637C0.00195312 42.8543 0.0570537 43.102 0.167255 43.3108C0.277456 43.5196 0.424391 43.6895 0.608059 43.8246C0.789687 43.9597 1.00193 44.06 1.24682 44.1256ZM0.489695 42.5637C0.489695 42.3876 0.52847 42.2279 0.603978 42.0826C0.679486 41.9373 0.779483 41.8144 0.90397 41.71C1.02846 41.6056 1.16927 41.5258 1.32845 41.4705C1.48763 41.4153 1.65089 41.3887 1.81823 41.3887H2.30189V43.7325H1.81619C1.63252 43.7325 1.4611 43.7059 1.29988 43.6527C1.13866 43.5995 0.997845 43.5237 0.87744 43.4234C0.757035 43.3231 0.66316 43.2003 0.593774 43.057C0.524388 42.9117 0.489695 42.7479 0.489695 42.5637Z" fill="#A09993"/>
<path d="M35.9766 44.8057H35.4746V45.3092H35.9766V44.8057Z" fill="#A09993"/>
<path d="M35.1192 44.8057H34.6172V45.3092H35.1192V44.8057Z" fill="#A09993"/>
<path d="M39.6629 44.8444C39.6935 44.6908 39.7098 44.5189 39.7098 44.3264V44.2221H46.0015V39.8291H45.5117V43.7328H43.4322L44.2873 41.6817C44.1567 41.567 44.0179 41.4606 43.8709 41.3603C43.724 41.26 43.573 41.172 43.4179 41.0962C43.2628 41.0205 43.1057 40.9611 42.9465 40.9181C42.7873 40.8751 42.6302 40.8547 42.4751 40.8547C42.3159 40.8547 42.1567 40.8772 41.9975 40.9181C41.8383 40.9611 41.6812 41.0184 41.5241 41.0921C41.3669 41.1658 41.2159 41.2538 41.071 41.3562C40.9261 41.4585 40.7914 41.565 40.6649 41.6796L41.5261 43.7308H39.7037V40.8997H39.2139V44.3285C39.2139 44.4677 39.2078 44.5844 39.1935 44.6806C39.1792 44.7768 39.1547 44.8546 39.1201 44.914C39.0854 44.9733 39.0384 45.0163 38.9792 45.0429C38.9201 45.0695 38.8446 45.0839 38.7507 45.0839C38.7058 45.0839 38.667 45.0818 38.6344 45.0777C38.6017 45.0736 38.5568 45.0634 38.4997 45.047L38.3711 45.5178C38.5058 45.5547 38.6384 45.5731 38.769 45.5731C38.9445 45.5731 39.0915 45.5444 39.2119 45.4871C39.3323 45.4298 39.4282 45.3479 39.5017 45.2394C39.5792 45.1289 39.6323 44.9979 39.6629 44.8444ZM41.2792 41.8536C41.4669 41.694 41.6588 41.5773 41.8567 41.5056C42.0547 41.4319 42.2608 41.3951 42.4771 41.3951C42.6975 41.3951 42.9159 41.4381 43.1322 41.5261C43.3485 41.6141 43.5322 41.7226 43.6832 41.8536L42.92 43.7328H42.0465L41.2792 41.8536Z" fill="#A09993"/>
<path d="M1.92781 39.8291H1.42578V40.3327H1.92781V39.8291Z" fill="#A09993"/>
<path d="M3.50701 47.4414H2.75396L1.09278 49.1998V47.4414H0.478516V50.9378H1.09278V49.9245L1.63563 49.3656L2.82947 50.9378H3.57231L2.05602 48.946L3.50701 47.4414Z" fill="#A09993"/>
<path d="M4.74708 47.4424H4.13281V50.9408H4.74708V47.4424Z" fill="#A09993"/>
<path d="M8.13207 49.8599L6.26069 47.4424H5.69336V50.9387H6.29742V48.4516L8.2239 50.9387H8.73614V47.4424H8.13207V49.8599Z" fill="#A09993"/>
<path d="M11.2796 49.52H12.1735V50.1751C11.9592 50.3347 11.6592 50.4391 11.3307 50.4391C10.6164 50.4391 10.1429 49.909 10.1429 49.1904V49.1802C10.1429 48.5108 10.6307 47.9458 11.2756 47.9458C11.7204 47.9458 11.9837 48.0912 12.2531 48.3205L12.6429 47.8558C12.2837 47.5508 11.9082 47.3809 11.3 47.3809C10.247 47.3809 9.49805 48.2099 9.49805 49.1904V49.2007C9.49805 50.2201 10.2164 51 11.3102 51C11.9286 51 12.4245 50.7503 12.7673 50.4555V48.9857H11.2796V49.52Z" fill="#A09993"/>
<path d="M14.9192 47.4414H13.6172V50.9398H14.9192C16.0171 50.9398 16.7763 50.1763 16.7763 49.1896V49.1793C16.7763 48.1947 16.0171 47.4414 14.9192 47.4414ZM16.1314 49.1998C16.1314 49.8835 15.6518 50.3789 14.9192 50.3789H14.2315V48.0003H14.9192C15.6539 48.0003 16.1314 48.5059 16.1314 49.1896V49.1998Z" fill="#A09993"/>
<path d="M19.1802 47.3809C18.1067 47.3809 17.3496 48.2058 17.3496 49.1904V49.2007C17.3496 50.1853 18.0986 51 19.172 51C20.2455 51 21.0046 50.1751 21.0046 49.1904V49.1802C21.0026 48.1956 20.2536 47.3809 19.1802 47.3809ZM20.3577 49.2007C20.3577 49.8803 19.874 50.435 19.1802 50.435C18.4863 50.435 17.9924 49.8701 17.9924 49.1904V49.1802C17.9924 48.5006 18.4761 47.9458 19.17 47.9458C19.8638 47.9458 20.3577 48.5108 20.3577 49.1904V49.2007Z" fill="#A09993"/>
<path d="M23.482 49.0954L22.4188 47.4414H21.7637V50.9378H22.3677V48.4404L23.4616 50.08H23.482L24.584 48.4301V50.9378H25.1983V47.4414H24.5452L23.482 49.0954Z" fill="#A09993"/>
<path d="M29.2759 47.3809C28.2024 47.3809 27.4453 48.2058 27.4453 49.1904V49.2007C27.4453 50.1853 28.1943 51 29.2677 51C30.3412 51 31.1003 50.1751 31.1003 49.1904V49.1802C31.0962 48.1956 30.3473 47.3809 29.2759 47.3809ZM30.4534 49.2007C30.4534 49.8803 29.9697 50.435 29.2759 50.435C28.582 50.435 28.0882 49.8701 28.0882 49.1904V49.1802C28.0882 48.5006 28.5718 47.9458 29.2657 47.9458C29.9595 47.9458 30.4534 48.5108 30.4534 49.1904V49.2007Z" fill="#A09993"/>
<path d="M31.8574 50.9378H32.4717V49.5151H34.2329V48.9542H32.4717V48.0003H34.4574V47.4414H31.8574V50.9378Z" fill="#A09993"/>
<path d="M37.9782 48.9095C37.3088 48.7499 37.1496 48.6291 37.1496 48.3609V48.3507C37.1496 48.1214 37.3598 47.9351 37.719 47.9351C38.0394 47.9351 38.3537 48.06 38.6679 48.2954L38.9965 47.8307C38.6414 47.5462 38.2373 47.3906 37.7292 47.3906C37.0353 47.3906 36.5353 47.8062 36.5353 48.4039V48.4141C36.5353 49.059 36.9557 49.278 37.6986 49.4581C38.3475 49.6076 38.4863 49.7427 38.4863 49.9924V50.0027C38.4863 50.2688 38.2475 50.4428 37.868 50.4428C37.4333 50.4428 37.0986 50.277 36.7639 49.9883L36.3945 50.4284C36.8149 50.803 37.317 50.9873 37.8516 50.9873C38.5863 50.9873 39.0985 50.5983 39.0985 49.9433V49.9331C39.1026 49.3558 38.7169 49.0897 37.9782 48.9095Z" fill="#A09993"/>
<path d="M40.982 47.418L39.4453 50.9409H40.0739L40.433 50.0955H42.0861L42.4412 50.9409H43.0901L41.5534 47.418H40.982ZM40.6575 49.551L41.2575 48.1508L41.8616 49.551H40.6575Z" fill="#A09993"/>
<path d="M45.8267 49.4557C45.8267 50.1005 45.492 50.4301 44.9471 50.4301C44.3982 50.4301 44.0635 50.08 44.0635 49.4311V47.4414H43.4492V49.4557C43.4492 50.469 44.0288 50.9951 44.9369 50.9951C45.8512 50.9951 46.4389 50.471 46.4389 49.427V47.4435H45.8247V49.4557H45.8267Z" fill="#A09993"/>
<path d="M48.6419 47.4424H47.3398V50.9408H48.6419C49.7398 50.9408 50.4989 50.1772 50.4989 49.1906V49.1803C50.4989 48.1957 49.7398 47.4424 48.6419 47.4424ZM49.8541 49.2008C49.8541 49.8845 49.3745 50.3799 48.6419 50.3799H47.9541V48.0012H48.6419C49.3765 48.0012 49.8541 48.5068 49.8541 49.1906V49.2008Z" fill="#A09993"/>
<path d="M51.8916 47.4414H51.2773V50.9398H51.8916V47.4414Z" fill="#A09993"/>
<path d="M55.5601 47.418L54.0234 50.9409H54.652L55.0112 50.0955H56.6642L57.0193 50.9409H57.6682L56.1315 47.418H55.5601ZM55.2357 49.551L55.8356 48.1508L56.4397 49.551H55.2357Z" fill="#A09993"/>
<path d="M61.1011 48.5551V48.5449C61.1011 48.2398 60.997 47.9799 60.8113 47.7895C60.5868 47.5705 60.242 47.4395 59.8032 47.4395H58.2461V50.9378H58.8604V49.7178H59.6195H59.6297L60.4889 50.9378H61.2134L60.2705 49.6134C60.7562 49.4742 61.1011 49.1303 61.1011 48.5551ZM58.8604 49.1753V48.0003H59.7542C60.2093 48.0003 60.4787 48.205 60.4787 48.5797V48.5899C60.4787 48.944 60.1991 49.1753 59.7603 49.1753H58.8604Z" fill="#A09993"/>
<path d="M63.1968 47.418L61.6602 50.9409H62.2887L62.6479 50.0955H64.3009L64.656 50.9409H65.305L63.7683 47.418H63.1968ZM62.8744 49.551L63.4744 48.1508L64.0785 49.551H62.8744Z" fill="#A09993"/>
<path d="M68.103 49.12C68.3622 48.9849 68.603 48.7597 68.603 48.3401V48.3298C68.603 48.0944 68.5234 47.9061 68.3683 47.7505C68.1683 47.5499 67.854 47.4414 67.454 47.4414H65.8867V50.9398H67.503C68.2826 50.9398 68.7948 50.6061 68.7948 49.9797V49.9695C68.7968 49.4946 68.5111 49.2592 68.103 49.12ZM66.4908 47.9859H67.3744C67.7683 47.9859 67.9887 48.1558 67.9887 48.4301V48.4404C67.9887 48.7597 67.7234 48.9153 67.3295 48.9153H66.4908V47.9859ZM68.1826 49.9142C68.1826 50.2295 67.9275 50.3932 67.5091 50.3932H66.4908V49.4332H67.4642C67.9479 49.4332 68.1826 49.6092 68.1826 49.904V49.9142Z" fill="#A09993"/>
<path d="M70.169 47.4424H69.5547V50.9408H70.169V47.4424Z" fill="#A09993"/>
<path d="M72.86 47.418H72.2906L70.7539 50.9409H71.3825L71.7416 50.0955H73.3947L73.7497 50.9409H74.3987L72.86 47.418ZM71.9682 49.551L72.5681 48.1508L73.1722 49.551H71.9682Z" fill="#A09993"/>
</g>
<defs>
<clipPath id="clip0_127_25339">
<rect width="76" height="51" fill="white"/>
</clipPath>
</defs>
</svg>
