<svg width="170" height="59" viewBox="0 0 170 59" fill="none" xmlns="http://www.w3.org/2000/svg">
<path d="M143.214 49.5566C142.763 49.5566 142.4 49.9219 142.4 50.3767V54.4496C142.4 54.8975 142.763 55.2697 143.214 55.2697C143.659 55.2697 144.028 54.9044 144.028 54.4496V50.3767C144.028 49.9288 143.666 49.5566 143.214 49.5566Z" fill="#909FB8"/>
<path d="M139.945 52.5547C139.562 52.5547 139.254 52.8648 139.254 53.2507V56.0969C139.254 56.4828 139.562 56.7929 139.945 56.7929C140.328 56.7929 140.636 56.4828 140.636 56.0969V53.2507C140.636 52.8648 140.328 52.5547 139.945 52.5547Z" fill="#909FB8"/>
<path d="M146.655 43.1816C146.121 43.1816 145.684 43.6227 145.684 44.1602V52.7883C145.684 53.3259 146.121 53.7669 146.655 53.7669C147.188 53.7669 147.626 53.3259 147.626 52.7883V44.1671C147.626 43.6227 147.188 43.1816 146.655 43.1816Z" fill="#909FB8"/>
<path d="M139.945 40.0322C139.493 40.0322 139.131 40.3975 139.131 40.8523V44.9941C139.131 45.442 139.493 45.8142 139.945 45.8142C140.389 45.8142 140.759 45.4489 140.759 44.9941V40.8523C140.759 40.3975 140.396 40.0322 139.945 40.0322Z" fill="#909FB8"/>
<path d="M143.213 41.5625C143.152 41.5625 143.083 41.5694 143.029 41.5832C142.974 41.5901 142.919 41.6107 142.871 41.6314C142.543 41.7692 142.324 42.0931 142.324 42.4584V47.4547C142.324 47.8268 142.557 48.1645 142.906 48.2955C142.926 48.3024 142.954 48.3093 142.988 48.323C143.022 48.3368 143.042 48.3368 143.063 48.3437C143.131 48.3575 143.179 48.3575 143.22 48.3575C143.713 48.3575 144.11 47.9578 144.11 47.4616V42.4653C144.11 41.9691 143.706 41.5625 143.213 41.5625Z" fill="#909FB8"/>
<path d="M136.832 38.5713C136.428 38.5713 136.1 38.9021 136.1 39.3087V42.6441C136.1 43.0507 136.428 43.3815 136.832 43.3815C137.235 43.3815 137.563 43.0507 137.563 42.6441V39.3087C137.563 38.9021 137.235 38.5713 136.832 38.5713Z" fill="#909FB8"/>
<path d="M133.863 37.1865C133.5 37.1865 133.213 37.4829 133.213 37.8412V40.4048C133.213 40.7632 133.507 41.0595 133.863 41.0595C134.218 41.0595 134.513 40.7632 134.513 40.4048V37.8412C134.513 37.476 134.218 37.1865 133.863 37.1865Z" fill="#909FB8"/>
<path d="M131.119 35.8906C130.825 35.8906 130.586 36.1318 130.586 36.4282V38.406C130.586 38.7023 130.825 38.9435 131.119 38.9435C131.414 38.9435 131.653 38.7023 131.653 38.406V36.4282C131.653 36.1318 131.414 35.8906 131.119 35.8906Z" fill="#909FB8"/>
<path d="M150.294 44.8838C149.753 44.8838 149.322 45.3248 149.322 45.8624V51.5685C149.322 52.1061 149.76 52.5471 150.294 52.5471C150.827 52.5471 151.265 52.1061 151.265 51.5685V45.8624C151.265 45.3248 150.827 44.8838 150.294 44.8838Z" fill="#909FB8"/>
<path d="M157.373 49.5566C157.817 49.5566 158.187 49.9219 158.187 50.3767V54.4496C158.187 54.8975 157.824 55.2697 157.373 55.2697C156.921 55.2697 156.559 54.9044 156.559 54.4496V50.3767C156.559 49.9288 156.928 49.5566 157.373 49.5566Z" fill="#909FB8"/>
<path d="M160.642 52.5547C161.025 52.5547 161.333 52.8648 161.333 53.2507V56.0969C161.333 56.4828 161.025 56.7929 160.642 56.7929C160.259 56.7929 159.951 56.4828 159.951 56.0969V53.2507C159.951 52.8648 160.259 52.5547 160.642 52.5547Z" fill="#909FB8"/>
<path d="M153.932 43.1816C154.466 43.1816 154.904 43.6227 154.904 44.1602V52.7883C154.904 53.3259 154.466 53.7669 153.932 53.7669C153.392 53.7669 152.961 53.3259 152.961 52.7883V44.1671C152.961 43.6227 153.399 43.1816 153.932 43.1816Z" fill="#909FB8"/>
<path d="M160.642 40.0322C161.087 40.0322 161.456 40.3975 161.456 40.8523V44.9941C161.456 45.442 161.094 45.8142 160.642 45.8142C160.191 45.8142 159.828 45.4489 159.828 44.9941V40.8523C159.828 40.3975 160.191 40.0322 160.642 40.0322Z" fill="#909FB8"/>
<path d="M157.373 41.5625C157.434 41.5625 157.496 41.5694 157.557 41.5832C157.612 41.5901 157.667 41.6107 157.715 41.6314C158.043 41.7692 158.262 42.0931 158.262 42.4584V47.4547C158.262 47.8268 158.029 48.1645 157.68 48.2955C157.66 48.3024 157.633 48.3093 157.598 48.323C157.564 48.3368 157.544 48.3368 157.523 48.3437C157.455 48.3575 157.407 48.3575 157.366 48.3575C156.873 48.3575 156.477 47.9578 156.477 47.4616V42.4653C156.477 41.9691 156.88 41.5625 157.373 41.5625Z" fill="#909FB8"/>
<path d="M163.755 38.5713C164.159 38.5713 164.487 38.9021 164.487 39.3087V42.6441C164.487 43.0507 164.159 43.3815 163.755 43.3815C163.352 43.3815 163.023 43.0507 163.023 42.6441V39.3087C163.023 38.9021 163.352 38.5713 163.755 38.5713Z" fill="#909FB8"/>
<path d="M166.724 37.1865C167.08 37.1865 167.374 37.4829 167.374 37.8412V40.4048C167.374 40.7632 167.08 41.0595 166.724 41.0595C166.362 41.0595 166.074 40.7632 166.074 40.4048V37.8412C166.074 37.476 166.368 37.1865 166.724 37.1865Z" fill="#909FB8"/>
<path d="M169.467 35.8906C169.761 35.8906 170.001 36.1318 170.001 36.4282V38.406C170.001 38.7023 169.761 38.9435 169.467 38.9435C169.173 38.9435 168.934 38.7023 168.934 38.406V36.4282C168.934 36.1318 169.173 35.8906 169.467 35.8906Z" fill="#909FB8"/>
<path d="M139.131 2.90798V5.65078C139.131 6.09873 139.493 6.47087 139.945 6.47087C140.389 6.47087 140.759 6.10562 140.759 5.65078V2.90798C140.759 2.46003 140.396 2.08789 139.945 2.08789C139.5 2.09478 139.131 2.46003 139.131 2.90798Z" fill="#41AD7A"/>
<path d="M139.131 29.1091V31.852C139.131 32.2999 139.493 32.672 139.945 32.672C140.389 32.672 140.759 32.3068 140.759 31.852V29.1091C140.759 28.6612 140.396 28.2891 139.945 28.2891C139.5 28.2891 139.131 28.6543 139.131 29.1091Z" fill="#41AD7A"/>
<path d="M159.822 2.90798V5.65078C159.822 6.09873 160.185 6.47087 160.636 6.47087C161.081 6.47087 161.45 6.10562 161.45 5.65078V2.90798C161.45 2.46003 161.088 2.08789 160.636 2.08789C160.185 2.09478 159.822 2.46003 159.822 2.90798Z" fill="#2C67A7"/>
<path d="M159.822 29.1091V31.852C159.822 32.2999 160.185 32.672 160.636 32.672C161.081 32.672 161.45 32.3068 161.45 31.852V29.1091C161.45 28.6612 161.088 28.2891 160.636 28.2891C160.185 28.2891 159.822 28.6543 159.822 29.1091Z" fill="#2C67A7"/>
<path d="M145.684 7.88386V26.8699C145.684 27.4074 146.121 27.8485 146.655 27.8485C147.188 27.8485 147.626 27.4074 147.626 26.8699V7.88386C147.626 7.34633 147.188 6.90527 146.655 6.90527C146.115 6.90527 145.684 7.34633 145.684 7.88386Z" fill="#909FB8"/>
<path d="M139.131 11.3162V15.5338C139.131 15.9817 139.493 16.3538 139.945 16.3538C140.389 16.3538 140.759 15.9886 140.759 15.5338V11.3162C140.759 10.8682 140.396 10.4961 139.945 10.4961C139.5 10.503 139.131 10.8682 139.131 11.3162Z" fill="#41AD7A"/>
<path d="M143.029 4.38298C142.974 4.39676 142.919 4.41054 142.871 4.43122C142.536 4.56905 142.324 4.89295 142.324 5.2582V29.4955C142.324 29.8676 142.557 30.2053 142.906 30.3363C142.926 30.3432 142.947 30.35 142.981 30.3638C143.015 30.3707 143.036 30.3776 143.056 30.3845C143.125 30.3983 143.172 30.3983 143.213 30.3983C143.706 30.3983 144.103 29.9986 144.103 29.5024V5.26509C144.103 4.7689 143.699 4.3623 143.213 4.3623C143.152 4.3623 143.09 4.3692 143.029 4.38298Z" fill="#2AA694"/>
<path d="M136.1 10.3858V13.9212C136.1 14.3277 136.428 14.6585 136.832 14.6585C137.235 14.6585 137.563 14.3277 137.563 13.9212V10.3858C137.563 9.97923 137.235 9.64844 136.832 9.64844C136.428 9.64844 136.1 9.97923 136.1 10.3858Z" fill="#57B45E"/>
<path d="M133.207 9.39981V12.0392C133.207 12.4045 133.501 12.6939 133.857 12.6939C134.219 12.6939 134.507 12.3976 134.507 12.0392V9.39981C134.507 9.03456 134.213 8.74512 133.857 8.74512C133.501 8.74512 133.207 9.03456 133.207 9.39981Z" fill="#65B645"/>
<path d="M145.684 7.88386V26.8768C145.684 27.4143 146.121 27.8553 146.655 27.8553C147.188 27.8553 147.626 27.4143 147.626 26.8768V7.88386C147.626 7.34633 147.188 6.90527 146.655 6.90527C146.115 6.90527 145.684 7.34633 145.684 7.88386Z" fill="#1EA6B6"/>
<path d="M139.131 19.2273V23.4449C139.131 23.8928 139.493 24.265 139.945 24.265C140.389 24.265 140.759 23.8997 140.759 23.4449V19.2273C140.759 18.7794 140.396 18.4072 139.945 18.4072C139.5 18.4072 139.131 18.7725 139.131 19.2273Z" fill="#41AD7A"/>
<path d="M136.1 20.8399V24.3753C136.1 24.7818 136.428 25.1126 136.832 25.1126C137.235 25.1126 137.563 24.7818 137.563 24.3753V20.8399C137.563 20.4333 137.235 20.1025 136.832 20.1025C136.428 20.1025 136.1 20.4333 136.1 20.8399Z" fill="#57B45E"/>
<path d="M133.207 22.7212V25.3606C133.207 25.7259 133.501 26.0153 133.857 26.0153C134.219 26.0153 134.507 25.719 134.507 25.3606V22.7212C134.507 22.3629 134.213 22.0665 133.857 22.0665C133.501 22.0596 133.207 22.356 133.207 22.7212Z" fill="#65B645"/>
<path d="M152.947 7.88386V26.8699C152.947 27.4074 153.385 27.8485 153.919 27.8485C154.452 27.8485 154.89 27.4074 154.89 26.8699V7.88386C154.89 7.34633 154.452 6.90527 153.919 6.90527C153.385 6.90527 152.947 7.34633 152.947 7.88386Z" fill="#909FB8"/>
<path d="M159.822 11.3162V15.5338C159.822 15.9817 160.185 16.3538 160.636 16.3538C161.081 16.3538 161.45 15.9886 161.45 15.5338V11.3162C161.45 10.8682 161.088 10.4961 160.636 10.4961C160.185 10.503 159.822 10.8682 159.822 11.3162Z" fill="#2C67A7"/>
<path d="M156.471 5.26512V29.4955C156.471 29.9917 156.867 30.3914 157.36 30.3914C157.401 30.3914 157.449 30.3845 157.517 30.3776C157.538 30.3776 157.558 30.3707 157.592 30.357C157.627 30.3501 157.654 30.3432 157.675 30.3294C158.023 30.1985 158.256 29.8608 158.256 29.4886V5.26512C158.256 4.89987 158.044 4.57597 157.709 4.43814C157.654 4.41747 157.606 4.39679 157.551 4.3899C157.49 4.37612 157.428 4.36923 157.367 4.36923C156.867 4.36234 156.471 4.76893 156.471 5.26512Z" fill="#257FB5"/>
<path d="M163.016 10.3858V13.9212C163.016 14.3277 163.344 14.6585 163.748 14.6585C164.151 14.6585 164.479 14.3277 164.479 13.9212V10.3858C164.479 9.97923 164.151 9.64844 163.748 9.64844C163.344 9.64844 163.016 9.97923 163.016 10.3858Z" fill="#38549D"/>
<path d="M166.061 9.39986V12.0393C166.061 12.4045 166.355 12.694 166.71 12.694C167.059 12.694 167.347 12.4114 167.36 12.06V9.3723C167.347 9.02083 167.059 8.73828 166.71 8.73828C166.355 8.74517 166.061 9.03461 166.061 9.39986Z" fill="#3D3696"/>
<path d="M152.947 7.88386V26.8768C152.947 27.4143 153.385 27.8553 153.919 27.8553C154.452 27.8553 154.89 27.4143 154.89 26.8768V7.88386C154.89 7.34633 154.452 6.90527 153.919 6.90527C153.385 6.90527 152.947 7.34633 152.947 7.88386Z" fill="#1E96C2"/>
<path d="M159.822 19.2273V23.4449C159.822 23.8928 160.185 24.265 160.636 24.265C161.081 24.265 161.45 23.8997 161.45 23.4449V19.2273C161.45 18.7794 161.088 18.4072 160.636 18.4072C160.185 18.4072 159.822 18.7725 159.822 19.2273Z" fill="#2C67A7"/>
<path d="M163.016 20.8399V24.3753C163.016 24.7818 163.344 25.1126 163.748 25.1126C164.151 25.1126 164.479 24.7818 164.479 24.3753V20.8399C164.479 20.4333 164.151 20.1025 163.748 20.1025C163.344 20.1025 163.016 20.4333 163.016 20.8399Z" fill="#38549D"/>
<path d="M166.061 22.7212V25.3606C166.061 25.7259 166.355 26.0153 166.71 26.0153C167.059 26.0153 167.347 25.7328 167.36 25.3813V22.6867C167.347 22.3353 167.059 22.0527 166.71 22.0527C166.355 22.0596 166.061 22.356 166.061 22.7212Z" fill="#3D3696"/>
<path d="M149.309 0.978589V41.3144C149.309 41.8519 149.746 42.293 150.28 42.293C150.813 42.293 151.251 41.8519 151.251 41.3144V0.978589C151.251 0.441054 150.813 0 150.28 0C149.746 0 149.309 0.441054 149.309 0.978589Z" fill="#15A3C7"/>
<path d="M0.232568 43.8646H4.11781C4.24778 43.8646 4.35038 43.7612 4.35038 43.6303V43.203C4.35038 43.0721 4.24778 42.9687 4.11781 42.9687H1.92894V42.1279C1.92894 41.7351 2.03155 41.4388 2.22991 41.232C2.42828 41.0322 2.70189 40.9288 3.05074 40.9288C3.33119 40.9288 3.61164 40.9839 3.87841 41.0942C3.90577 41.108 3.93997 41.1149 3.97417 41.1149C4.07677 41.1149 4.16569 41.0529 4.19306 40.9495L4.30934 40.5636C4.34354 40.4533 4.28882 40.3361 4.19306 40.2879C3.88525 40.1432 3.53639 40.0674 3.13966 40.0674C2.68137 40.0674 2.29147 40.1501 1.96998 40.3086C1.64849 40.4671 1.39541 40.7014 1.21756 40.9977C1.04655 41.2941 0.957631 41.6317 0.957631 41.9901V42.9963H0.232568C0.102603 42.9894 0 43.0927 0 43.2237V43.6234C0 43.7543 0.102603 43.8646 0.232568 43.8646Z" fill="#8FA0BA"/>
<path d="M97.2474 36.7453L97.3637 36.3525C97.3842 36.2836 97.3226 36.2629 97.3226 36.2629C97.1516 36.1596 96.9464 36.1113 96.7139 36.1113C96.4881 36.1113 96.2898 36.1527 96.1256 36.2285C95.9614 36.3112 95.8315 36.4283 95.7426 36.5868C95.6536 36.7385 95.6058 36.9107 95.6058 37.0968V37.3931H95.2501C95.1953 37.3931 95.1543 37.4414 95.1543 37.4896V37.848C95.1543 37.9031 95.1953 37.9445 95.2501 37.9445H97.2679C97.3226 37.9445 97.3705 37.9031 97.3705 37.848V37.4758C97.3705 37.4207 97.3226 37.3794 97.2679 37.3794H96.2145V37.1657C96.2145 37.0003 96.2556 36.8694 96.3377 36.7867C96.4197 36.704 96.5292 36.6626 96.6797 36.6626C96.837 36.6626 96.9943 36.704 97.1448 36.7798C97.138 36.7798 97.2269 36.8211 97.2474 36.7453Z" fill="#8FA0BA"/>
<path d="M33.2025 45.4358L33.3188 45.043C33.3393 44.9741 33.2777 44.9534 33.2777 44.9534C33.1067 44.8432 32.9015 44.7949 32.6689 44.7949C32.4432 44.7949 32.2449 44.8363 32.0807 44.9121C31.9165 44.9948 31.7866 45.1119 31.6976 45.2704C31.6087 45.422 31.5608 45.5943 31.5608 45.7804V46.0767H31.2051C31.1504 46.0767 31.1094 46.125 31.1094 46.1732V46.5316C31.1094 46.5867 31.1504 46.6281 31.2051 46.6281H33.223C33.2777 46.6281 33.3256 46.5867 33.3256 46.5316V46.1594C33.3256 46.1043 33.2777 46.063 33.223 46.063H32.1696V45.8493C32.1696 45.6839 32.2107 45.553 32.2927 45.4703C32.3748 45.3876 32.4843 45.3462 32.6347 45.3462C32.7921 45.3462 32.9494 45.3876 33.0999 45.4634C33.093 45.4703 33.182 45.5116 33.2025 45.4358Z" fill="#8FA0BA"/>
<path d="M26.937 40.977C26.848 40.3982 26.7181 39.9502 26.5471 39.6608C26.2119 39.0612 25.651 38.758 24.8849 38.758C24.2009 38.758 23.6058 38.8958 23.1133 39.1646C23.0038 39.2266 22.9628 39.3644 23.0244 39.4747L23.2022 39.8331C23.2432 39.9089 23.3185 39.9571 23.4074 39.9571C23.4416 39.9571 23.4758 39.9502 23.51 39.9364C23.9478 39.7297 24.3582 39.6194 24.7276 39.6194C25.138 39.6194 25.439 39.7366 25.6168 39.9571C25.8083 40.1914 25.952 40.598 26.0409 41.17C26.2051 42.1899 26.6839 42.7413 26.9233 42.9894H20.7192V41.3767C20.7192 40.4877 20.5208 39.8262 20.1173 39.3989C19.7411 38.9992 19.187 38.7856 18.4688 38.7649H18.3662C17.8053 38.7649 17.2375 38.8958 16.6766 39.1577C16.0473 39.4471 15.247 39.9158 14.6109 40.9357V39.3989C14.6109 39.268 14.5083 39.1646 14.3783 39.1646H13.9063C13.7764 39.1646 13.6738 39.268 13.6738 39.3989V42.9894H6.91564V36.3046C6.91564 36.1737 6.81304 36.0703 6.68308 36.0703H6.18374C6.05378 36.0703 5.95117 36.1737 5.95117 36.3046V43.8577H27.8946C27.9972 43.8577 28.0861 43.775 28.0861 43.6716L28.0724 43.0238C27.7236 42.7137 27.108 42.0314 26.937 40.977ZM14.6246 42.9962C14.6383 42.4311 14.8982 41.68 15.2812 41.1562C16.0815 40.0398 17.347 39.6401 18.1815 39.6401C18.7219 39.6401 19.1323 39.7848 19.399 40.0674C19.6658 40.3568 19.8026 40.8116 19.8026 41.4181V42.9962H14.6246Z" fill="#8FA0BA"/>
<path d="M29.3647 43.8645H38.2296C38.3323 43.8645 38.4212 43.7818 38.4212 43.6784V36.3115C38.4212 36.1805 38.3186 36.0771 38.1886 36.0771H37.6756C37.5456 36.0771 37.443 36.1805 37.443 36.3115V42.9962H35.0489V36.3115C35.0489 36.1805 34.9463 36.0771 34.8164 36.0771H34.3034C34.1734 36.0771 34.0708 36.1805 34.0708 36.3115V42.9962H32.7712L31.4989 37.6208C31.4715 37.5175 31.3826 37.4417 31.2731 37.4417H30.7396C30.6712 37.4417 30.6028 37.4761 30.5549 37.5312C30.507 37.5864 30.4934 37.6622 30.5139 37.7311L31.7588 42.9962H29.3716C29.2416 42.9962 29.139 43.0996 29.139 43.2305V43.6233C29.1322 43.7542 29.2348 43.8645 29.3647 43.8645Z" fill="#8FA0BA"/>
<path d="M78.0188 43.6715V36.3115C78.0188 36.1805 77.9162 36.0771 77.7862 36.0771H77.2732C77.1432 36.0771 77.0406 36.1805 77.0406 36.3115V42.9962H70.8776C70.5287 42.9962 70.1799 42.9342 69.8242 42.8101C70.3714 42.4242 70.8023 41.9211 71.1238 41.3216C71.4248 40.7427 71.589 40.1224 71.6163 39.4746C71.6232 39.3644 71.5684 39.261 71.4727 39.2059C71.1443 38.9991 70.7545 38.8268 70.3167 38.7028C69.9336 38.5925 69.5027 38.5374 69.0512 38.5374C68.5793 38.5374 68.1415 38.5925 67.7448 38.7097C67.3138 38.8337 66.9308 38.9991 66.6093 39.2059C66.5204 39.261 66.4656 39.3644 66.4656 39.4746C66.4862 40.1224 66.6503 40.7427 66.9581 41.3216C67.2728 41.928 67.7106 42.4311 68.2715 42.8239C67.9636 42.9411 67.5806 43.0031 67.136 43.0031H61.4996V36.3184C61.4996 36.1874 61.397 36.084 61.2671 36.084H60.754C60.6241 36.084 60.5215 36.1874 60.5215 36.3184V43.6784C60.5215 43.7818 60.6036 43.8714 60.7062 43.8714H67.1428C67.8132 43.8714 68.4561 43.6991 69.0239 43.3614C69.6532 43.6991 70.2962 43.8714 70.9255 43.8714H77.8341C77.9367 43.8645 78.0188 43.7749 78.0188 43.6715ZM67.8952 41.1906C67.649 40.784 67.5053 40.3016 67.4711 39.771C67.9294 39.5298 68.4356 39.4126 68.9555 39.4126H69.1196C69.6463 39.4126 70.1457 39.5367 70.604 39.771C70.5698 40.3085 70.4261 40.784 70.1799 41.1906C69.9268 41.6041 69.5369 41.9969 69.0512 42.3484C68.5382 41.9969 68.1483 41.6041 67.8952 41.1906Z" fill="#8FA0BA"/>
<path d="M81.2554 36.0771H80.7423C80.6124 36.0771 80.5098 36.1805 80.5098 36.3115V43.6302C80.5098 43.7611 80.6124 43.8645 80.7423 43.8645H81.2554C81.3853 43.8645 81.4879 43.7611 81.4879 43.6302V36.3115C81.4879 36.1805 81.3853 36.0771 81.2554 36.0771Z" fill="#8FA0BA"/>
<path d="M118.199 43.8645C118.302 43.8645 118.391 43.7818 118.391 43.6784V36.3115C118.391 36.1805 118.288 36.0771 118.158 36.0771H117.645C117.515 36.0771 117.412 36.1805 117.412 36.3115V42.9962H113.083V41.3216C113.083 40.2396 112.775 39.3851 112.173 38.7855C111.571 38.1859 110.695 37.8827 109.587 37.8827C108.889 37.8827 108.233 37.9654 107.645 38.1377C107.583 38.1515 107.535 38.1928 107.508 38.248C107.48 38.3031 107.474 38.372 107.487 38.434L107.597 38.7993C107.624 38.8958 107.72 38.9647 107.822 38.9647C107.843 38.9647 107.857 38.9647 107.877 38.9578C108.493 38.8131 109.033 38.751 109.587 38.751C110.47 38.751 111.126 38.9647 111.53 39.3919C111.94 39.8192 112.145 40.4946 112.145 41.4043V42.9962H111.099V41.6937C111.099 40.2258 110.422 39.4746 109.081 39.4746C108.705 39.4746 108.349 39.5642 108.034 39.7365C107.672 39.9364 107.398 40.2258 107.207 40.6048C107.056 40.9081 106.988 41.2458 107.002 41.6179C107.015 41.9418 107.077 42.2243 107.2 42.4587C107.309 42.6792 107.46 42.8584 107.631 42.9962H102.788V39.1025C102.788 38.9716 102.685 38.8682 102.555 38.8682H102.042C101.912 38.8682 101.81 38.9716 101.81 39.1025V42.9962H96.7686V39.1025C96.7686 38.9716 96.666 38.8682 96.536 38.8682H96.023C95.8931 38.8682 95.7905 38.9716 95.7905 39.1025V42.9962H90.1541V39.0956C90.1541 38.9647 90.0515 38.8613 89.9216 38.8613H88.5809C87.7258 38.8613 87.0281 39.0956 86.522 39.5642C86.0158 40.0329 85.7559 40.66 85.7559 41.4387C85.7559 42.2175 85.9884 42.8239 86.4467 43.2374C86.905 43.6509 87.5548 43.8645 88.3757 43.8645H118.199ZM109.033 40.4395C109.786 40.4395 110.155 40.9012 110.155 41.8453V42.9962H109.355C108.944 42.9962 108.609 42.8721 108.356 42.624C108.103 42.376 107.973 42.0521 107.973 41.6523C107.973 41.2526 108.069 40.9494 108.253 40.7496C108.438 40.5428 108.705 40.4395 109.033 40.4395ZM89.2102 39.7296V42.9962H88.3483C87.8284 42.9962 87.4249 42.8652 87.1444 42.6034C86.864 42.3415 86.7203 41.9487 86.7203 41.4249C86.7203 40.9012 86.8845 40.4877 87.2128 40.1845C87.5343 39.8812 88.0063 39.7227 88.6014 39.7227H89.2102V39.7296Z" fill="#8FA0BA"/>
<path d="M121.359 36.0771H120.846C120.716 36.0771 120.613 36.1805 120.613 36.3115V43.6302C120.613 43.7611 120.716 43.8645 120.846 43.8645H121.359C121.489 43.8645 121.591 43.7611 121.591 43.6302V36.3115C121.591 36.1805 121.489 36.0771 121.359 36.0771Z" fill="#8FA0BA"/>
<path d="M53.0798 43.8576C53.7296 43.8439 54.1674 43.5958 54.3931 43.1065C54.7283 43.6302 55.3713 43.8576 56.5068 43.8576H58.5451C58.6477 43.8576 58.7298 43.7749 58.7298 43.6716V41.3216C58.7298 39.7021 57.9637 38.882 56.452 38.882C54.9198 38.882 53.928 39.9364 53.928 41.5697C53.928 42.8239 53.5107 42.9962 53.0661 42.9962H46.992V39.0956C46.992 38.9647 46.8894 38.8613 46.7594 38.8613H45.4188C44.5637 38.8613 43.866 39.0956 43.3599 39.5643C42.8537 40.0329 42.5938 40.66 42.5938 41.4387C42.5938 42.2175 42.8263 42.8239 43.2846 43.2374C43.7429 43.6509 44.3927 43.8645 45.2136 43.8645C53.073 43.8576 53.0798 43.8576 53.0798 43.8576ZM46.0549 39.7297V42.9962H45.193C44.6732 42.9962 44.2696 42.8653 43.9892 42.6034C43.7087 42.3415 43.5651 41.9487 43.5651 41.425C43.5651 40.9012 43.7292 40.4877 44.0507 40.1845C44.3722 39.8813 44.8442 39.7297 45.4393 39.7297H46.0549ZM56.3836 39.6952C57.3276 39.6952 57.7448 40.2465 57.7448 41.4732V42.9893H56.6299C55.4328 42.9893 54.9403 42.5483 54.9403 41.4732C54.9403 40.3775 55.4944 39.6952 56.3836 39.6952Z" fill="#8FA0BA"/>
<path d="M103.457 44.8086H102.972C102.903 44.8086 102.842 44.8362 102.794 44.8844C102.739 44.9326 102.719 44.9947 102.719 45.0705V45.8423C102.719 45.9112 102.746 45.9733 102.794 46.0215C102.842 46.0766 102.903 46.0973 102.979 46.0973H103.464C103.533 46.0973 103.594 46.0697 103.642 46.0215C103.69 45.9733 103.717 45.9112 103.717 45.8423V45.0705C103.717 45.0016 103.69 44.9395 103.642 44.8844C103.587 44.8293 103.526 44.8086 103.457 44.8086Z" fill="#8FA0BA"/>
<path d="M101.619 44.8086H101.133C101.065 44.8086 101.003 44.8362 100.948 44.8844C100.9 44.9326 100.873 44.9947 100.873 45.0705V45.8423C100.873 45.9112 100.9 45.9733 100.948 46.0215C101.003 46.0766 101.058 46.0973 101.133 46.0973H101.619C101.687 46.0973 101.749 46.0697 101.796 46.0215C101.851 45.9733 101.872 45.9112 101.872 45.8423V45.0705C101.872 45.0016 101.844 44.9395 101.796 44.8844C101.749 44.8293 101.694 44.8086 101.619 44.8086Z" fill="#8FA0BA"/>
<path d="M89.3468 38.1647H89.8325C89.9009 38.1647 89.9625 38.1371 90.0103 38.0889C90.0651 38.0406 90.0856 37.9786 90.0856 37.9028V37.131C90.0856 37.062 90.0582 37 90.0103 36.9518C89.9625 36.8967 89.9009 36.876 89.8257 36.876H89.34C89.2716 36.876 89.21 36.9035 89.1553 36.9518C89.1074 37 89.0801 37.062 89.0801 37.131V37.9028C89.0801 37.9717 89.1074 38.0337 89.1553 38.0889C89.2169 38.1371 89.2784 38.1647 89.3468 38.1647Z" fill="#8FA0BA"/>
<path d="M87.506 38.1647H87.9917C88.0601 38.1647 88.1216 38.1371 88.1764 38.0889C88.2242 38.0406 88.2516 37.9786 88.2516 37.9028V37.131C88.2516 37.062 88.2242 37 88.1764 36.9518C88.1216 36.8967 88.0669 36.876 87.9917 36.876H87.506C87.4376 36.876 87.3761 36.9035 87.3213 36.9518C87.2735 37 87.2461 37.062 87.2461 37.131V37.9028C87.2461 37.9717 87.2735 38.0337 87.3213 38.0889C87.3761 38.1371 87.4376 38.1647 87.506 38.1647Z" fill="#8FA0BA"/>
<path d="M46.3019 38.1647H46.7876C46.856 38.1647 46.9175 38.1371 46.9654 38.0889C47.0201 38.0406 47.0407 37.9786 47.0407 37.9028V37.131C47.0407 37.062 47.0133 37 46.9654 36.9518C46.9175 36.8967 46.856 36.876 46.7807 36.876H46.2951C46.2267 36.876 46.1651 36.9035 46.1104 36.9518C46.0625 37 46.0352 37.062 46.0352 37.131V37.9028C46.0352 37.9717 46.0625 38.0337 46.1104 38.0889C46.172 38.1371 46.2335 38.1647 46.3019 38.1647Z" fill="#8FA0BA"/>
<path d="M44.4611 38.1647H44.9468C45.0152 38.1647 45.0767 38.1371 45.1314 38.0889C45.1793 38.0406 45.2067 37.9786 45.2067 37.9028V37.131C45.2067 37.062 45.1793 37 45.1314 36.9518C45.0767 36.8967 45.022 36.876 44.9468 36.876H44.4611C44.3927 36.876 44.3311 36.9035 44.2764 36.9518C44.2285 37 44.2012 37.062 44.2012 37.131V37.9028C44.2012 37.9717 44.2285 38.0337 44.2764 38.0889C44.3311 38.1371 44.3927 38.1647 44.4611 38.1647Z" fill="#8FA0BA"/>
<path d="M4.32302 52.7405H3.81684C3.75528 52.7405 3.7074 52.7612 3.66636 52.8094C3.63216 52.8508 3.61164 52.9059 3.61164 52.9679V55.6349C3.50219 55.6487 3.35855 55.6556 3.18754 55.6694C2.99602 55.6831 2.75661 55.69 2.46932 55.69C2.25727 55.69 2.05207 55.6487 1.86738 55.5729C1.68269 55.4971 1.51853 55.373 1.38172 55.2007C1.24492 55.0285 1.12864 54.8079 1.05339 54.5392C0.971311 54.2704 0.93027 53.9396 0.93027 53.5537V52.2925C0.93027 51.8791 0.978152 51.5276 1.06707 51.2519C1.156 50.9763 1.27912 50.7557 1.42277 50.5972C1.57325 50.4318 1.74426 50.3216 1.93578 50.2596C2.13415 50.1975 2.33936 50.1631 2.5514 50.1631C2.74977 50.1631 2.92761 50.1631 3.09178 50.17L3.53639 50.1769C3.6732 50.1838 3.80316 50.1838 3.93313 50.1975C4.06309 50.2044 4.19306 50.2182 4.3367 50.232H4.37774C4.52139 50.232 4.53507 50.1424 4.53507 50.1011V49.6187C4.53507 49.5428 4.50086 49.5015 4.4735 49.4877C4.4393 49.467 4.39826 49.4533 4.35038 49.4464C4.16569 49.4119 3.93313 49.3843 3.64584 49.3568C3.35855 49.3292 2.99602 49.3154 2.55824 49.3154C2.25727 49.3154 1.94946 49.3637 1.64849 49.4533C1.34068 49.5429 1.06707 49.7082 0.827667 49.9357C0.588259 50.1631 0.389893 50.4732 0.239408 50.8522C0.0752424 51.2382 0 51.7206 0 52.2994V53.5675C0 54.1119 0.0752424 54.5805 0.218887 54.9527C0.362532 55.3317 0.554058 55.6418 0.786625 55.8692C1.01919 56.1035 1.28596 56.2758 1.58009 56.3792C1.87422 56.4826 2.17519 56.5377 2.46932 56.5377C2.90709 56.5377 3.27647 56.5239 3.56376 56.4963C3.85104 56.4688 4.11097 56.4343 4.34354 56.393C4.4735 56.3723 4.54191 56.2896 4.54191 56.1449V52.9679C4.54191 52.9059 4.52139 52.8576 4.48034 52.8094C4.43246 52.7681 4.38458 52.7405 4.32302 52.7405Z" fill="#8FA0BA"/>
<path d="M9.24059 51.7481C9.06274 51.5551 8.84385 51.3966 8.58392 51.2933C8.324 51.1899 8.01619 51.1348 7.67418 51.1348C6.99699 51.1348 6.46346 51.3415 6.10092 51.7412C5.73839 52.1409 5.56055 52.6991 5.56055 53.3814V54.229C5.56055 54.6701 5.62211 55.0422 5.74523 55.3386C5.86836 55.6349 6.03252 55.8692 6.23089 56.0484C6.42925 56.2276 6.66866 56.3516 6.92859 56.4274C7.18852 56.4963 7.45529 56.5377 7.72206 56.5377C8.04355 56.5377 8.33768 56.5239 8.60444 56.4963C8.87121 56.4688 9.14482 56.4274 9.40475 56.3792C9.49367 56.3654 9.5484 56.3378 9.57576 56.2965C9.60312 56.2551 9.62364 56.2 9.62364 56.1311V55.8072C9.62364 55.7452 9.60312 55.6969 9.56208 55.6694C9.52787 55.6487 9.48683 55.6349 9.43895 55.6349H9.38423C9.16534 55.6625 8.90541 55.69 8.5976 55.7107C8.28979 55.7314 7.99567 55.7383 7.72206 55.7383C7.3048 55.7383 6.98331 55.628 6.77127 55.4006C6.55922 55.1801 6.44978 54.7872 6.44978 54.2359V54.1394H9.5484C9.63048 54.1394 9.76044 54.105 9.76044 53.8982V53.3883C9.76044 53.0506 9.71256 52.7405 9.63048 52.4648C9.5484 52.1823 9.41843 51.9411 9.24059 51.7481ZM6.46346 53.3814C6.46346 52.8852 6.56606 52.5131 6.77811 52.2788C6.98331 52.0444 7.29112 51.9342 7.68786 51.9342C8.08459 51.9342 8.3924 52.0444 8.58392 52.265C8.78229 52.4855 8.87805 52.8576 8.87805 53.3814V53.4296H6.46346V53.3814Z" fill="#8FA0BA"/>
<path d="M13.0913 51.1348C12.8109 51.1348 12.5509 51.1761 12.3184 51.245C12.1063 51.3139 11.8806 51.4173 11.6344 51.5483V51.4242C11.6344 51.3622 11.6138 51.3071 11.5728 51.2657C11.5317 51.2175 11.477 51.1968 11.4155 51.1968H10.9503C10.8888 51.1968 10.8409 51.2175 10.7998 51.2657C10.7588 51.3139 10.7383 51.3622 10.7383 51.4242V56.2413C10.7383 56.3034 10.7588 56.3516 10.7998 56.3998C10.8409 56.4481 10.8956 56.4688 10.9503 56.4688H11.4086C11.4702 56.4688 11.5181 56.4481 11.5659 56.3998C11.6138 56.3585 11.6344 56.3034 11.6344 56.2413V52.2856C11.8464 52.1823 12.0516 52.0996 12.2568 52.0307C12.462 51.9617 12.6672 51.9273 12.8656 51.9273C13.0366 51.9273 13.1871 51.948 13.317 51.9893C13.4402 52.0307 13.5428 52.0927 13.6249 52.1823C13.7069 52.2719 13.7685 52.3959 13.8027 52.5475C13.8437 52.706 13.8643 52.899 13.8643 53.1402V56.2413C13.8643 56.3034 13.8848 56.3516 13.9327 56.3998C13.9737 56.4481 14.0284 56.4688 14.09 56.4688H14.5414C14.603 56.4688 14.6509 56.4481 14.6988 56.3998C14.7398 56.3585 14.7672 56.3034 14.7672 56.2413V53.1333C14.7672 52.4993 14.6372 52.0031 14.3704 51.6585C14.0968 51.3139 13.6659 51.1348 13.0913 51.1348Z" fill="#8FA0BA"/>
<path d="M19.4203 51.7481C19.2424 51.5483 19.0235 51.3966 18.7636 51.2933C18.5037 51.1899 18.1959 51.1348 17.8539 51.1348C17.1698 51.1348 16.6431 51.3415 16.2806 51.7412C15.9181 52.1409 15.7402 52.6991 15.7402 53.3814V54.229C15.7402 54.6701 15.8018 55.0491 15.9249 55.3386C16.048 55.6349 16.2122 55.8692 16.4106 56.0484C16.6089 56.2276 16.8415 56.3516 17.1014 56.4274C17.3614 56.4963 17.6281 56.5377 17.9017 56.5377C18.2232 56.5377 18.5174 56.5239 18.7841 56.4963C19.0509 56.4688 19.3245 56.4274 19.5844 56.3792C19.6665 56.3654 19.7281 56.3378 19.7554 56.2965C19.7828 56.2551 19.8033 56.2 19.8033 56.1311V55.8072C19.8033 55.7245 19.7691 55.69 19.7418 55.6694C19.7076 55.6487 19.6665 55.6349 19.6186 55.6349H19.5639C19.345 55.6625 19.0851 55.69 18.7773 55.7107C18.4695 55.7314 18.1754 55.7383 17.9017 55.7383C17.4845 55.7383 17.163 55.628 16.951 55.4006C16.7389 55.1801 16.6363 54.7872 16.6363 54.2359V54.1394H19.7349C19.817 54.1394 19.947 54.105 19.947 53.8982V53.3883C19.947 53.0506 19.8991 52.7405 19.817 52.4648C19.7281 52.1823 19.5913 51.9411 19.4203 51.7481ZM16.6363 53.3814C16.6363 52.8852 16.7389 52.5131 16.951 52.2788C17.1562 52.0444 17.464 51.9342 17.8607 51.9342C18.2574 51.9342 18.5652 52.0444 18.7568 52.265C18.9551 52.4855 19.0509 52.8645 19.0509 53.3814V53.4296H16.6363V53.3814Z" fill="#8FA0BA"/>
<path d="M23.0658 51.1348C22.8469 51.1348 22.628 51.1692 22.4091 51.245C22.2108 51.3071 21.9987 51.4173 21.7798 51.562V51.4311C21.7798 51.3691 21.7593 51.3139 21.7183 51.2726C21.6772 51.2244 21.6225 51.2037 21.5678 51.2037H21.13C21.0685 51.2037 21.0206 51.2244 20.9795 51.2726C20.9385 51.3208 20.918 51.3691 20.918 51.4311V56.2482C20.918 56.3103 20.9385 56.3585 20.9795 56.4067C21.0206 56.455 21.0753 56.4757 21.13 56.4757H21.5883C21.6499 56.4757 21.6978 56.455 21.7456 56.4067C21.7935 56.3654 21.814 56.3103 21.814 56.2482L21.7935 52.327C22.0261 52.1823 22.245 52.0858 22.4502 52.0238C22.6485 51.9686 22.8606 51.9342 23.0726 51.9342C23.2778 51.9342 23.3052 51.8101 23.3052 51.7343V51.3415C23.3052 51.2106 23.2163 51.1348 23.0658 51.1348Z" fill="#8FA0BA"/>
<path d="M25.843 51.1348C25.5284 51.1348 25.2479 51.1486 25.0154 51.1761C24.7828 51.2037 24.5708 51.2312 24.3792 51.2588C24.1877 51.2864 24.1535 51.3898 24.1535 51.4725V51.8032C24.1535 51.879 24.174 51.9342 24.2219 51.9549C24.2629 51.9755 24.304 51.9893 24.3587 51.9893H24.4066C24.5913 51.9686 24.8033 51.9549 25.0359 51.9411C25.2685 51.9273 25.5421 51.9135 25.843 51.9135C26.1987 51.9135 26.4518 51.9893 26.5955 52.1409C26.7391 52.2925 26.8075 52.5613 26.8075 52.9472V53.2918H26.1508C25.7336 53.2918 25.3711 53.3263 25.0838 53.3883C24.7965 53.4503 24.5502 53.5537 24.3724 53.6846C24.1877 53.8156 24.0577 53.9878 23.9757 54.1808C23.8936 54.3738 23.8594 54.6081 23.8594 54.8631V54.9802C23.8594 55.2765 23.9004 55.5315 23.9893 55.7314C24.0783 55.9312 24.1945 56.0966 24.3382 56.2138C24.4818 56.3378 24.6528 56.4205 24.8375 56.4688C25.0222 56.517 25.2206 56.5446 25.4258 56.5446C25.6926 56.5446 25.9456 56.4963 26.185 56.4067C26.4039 56.324 26.6228 56.2207 26.828 56.1035V56.2482C26.828 56.3103 26.8486 56.3585 26.8964 56.4067C26.9443 56.455 26.9922 56.4757 27.0538 56.4757H27.4847C27.5463 56.4757 27.5941 56.455 27.642 56.4067C27.6831 56.3585 27.7104 56.3103 27.7104 56.2482V52.9472C27.7104 52.389 27.5668 51.9411 27.2726 51.6172C26.9785 51.3002 26.4997 51.1348 25.843 51.1348ZM24.7554 54.8493C24.7554 54.6839 24.776 54.546 24.817 54.4358C24.858 54.3255 24.9264 54.2359 25.0291 54.167C25.1317 54.0981 25.2753 54.043 25.4531 54.0085C25.6378 53.9741 25.8772 53.9603 26.1508 53.9603H26.8075V55.4213C26.5886 55.5384 26.3834 55.628 26.1919 55.69C26.0004 55.7521 25.7883 55.7796 25.5763 55.7796C25.3095 55.7796 25.1043 55.7245 24.9607 55.6142C24.8238 55.504 24.7486 55.2834 24.7486 54.9595V54.8493H24.7554Z" fill="#8FA0BA"/>
<path d="M29.5776 49.2949H29.0919C29.0304 49.2949 28.9825 49.3156 28.9414 49.3569C28.9072 49.3983 28.8867 49.4465 28.8867 49.5086V56.2484C28.8867 56.3104 28.9072 56.3587 28.9414 56.4069C28.9825 56.4552 29.0304 56.4758 29.0919 56.4758H29.5776C29.6391 56.4758 29.687 56.4552 29.7281 56.4069C29.7623 56.3656 29.7828 56.3104 29.7828 56.2484V49.5086C29.7828 49.4465 29.7623 49.3983 29.7281 49.3569C29.6939 49.3156 29.6391 49.2949 29.5776 49.2949Z" fill="#8FA0BA"/>
<path d="M36.7533 50.0459C36.7123 49.8943 36.6575 49.7703 36.5823 49.6807C36.5071 49.5842 36.425 49.5084 36.336 49.4533C36.2471 49.3981 36.1514 49.3568 36.0556 49.343C35.9598 49.3223 35.8641 49.3154 35.7752 49.3154C35.6862 49.3154 35.5905 49.3292 35.4879 49.3499C35.3853 49.3706 35.2895 49.4119 35.2006 49.467C35.1116 49.5222 35.0296 49.598 34.9543 49.6945C34.8791 49.7909 34.8244 49.915 34.7833 50.0597L33.0527 56.2069C33.0459 56.2276 33.0391 56.2483 33.0391 56.2896C33.0391 56.4136 33.1075 56.4757 33.2374 56.4757H33.7915C33.8394 56.4757 33.8804 56.455 33.9215 56.4205C33.9557 56.3861 33.983 56.3516 33.9967 56.3034L34.5918 54.1532H36.9654L37.5673 56.3034C37.581 56.3447 37.6015 56.3792 37.6288 56.4136C37.6631 56.4481 37.7041 56.4688 37.7588 56.4688H38.306C38.4292 56.4688 38.5044 56.3999 38.5044 56.2827C38.5044 56.2482 38.4976 56.2207 38.4907 56.2069L36.7533 50.0459ZM34.7765 53.3401L35.6178 50.2802C35.652 50.1493 35.7204 50.1355 35.7683 50.1355C35.8162 50.1355 35.8778 50.1493 35.912 50.2802L36.7533 53.3401H34.7765Z" fill="#8FA0BA"/>
<path d="M43.0053 51.2041H42.547C42.4855 51.2041 42.4376 51.2248 42.3897 51.273C42.3418 51.3213 42.3213 51.3695 42.3213 51.4315V55.3872C42.1092 55.4906 41.904 55.5733 41.6988 55.6422C41.4936 55.7111 41.2884 55.7456 41.0901 55.7456C40.9122 55.7456 40.7617 55.7249 40.6386 55.6836C40.5155 55.6422 40.4129 55.5802 40.3376 55.4906C40.2555 55.401 40.194 55.277 40.1598 55.1253C40.1187 54.9668 40.0982 54.767 40.0982 54.5327V51.4315C40.0982 51.3695 40.0777 51.3213 40.0298 51.273C39.9819 51.2248 39.9341 51.2041 39.8725 51.2041H39.421C39.3595 51.2041 39.3116 51.2248 39.2637 51.273C39.2158 51.3213 39.1953 51.3695 39.1953 51.4315V54.5396C39.1953 55.1736 39.3253 55.6698 39.592 56.0143C39.8588 56.3658 40.2829 56.5381 40.8643 56.5381C41.1448 56.5381 41.4047 56.5036 41.6373 56.4278C41.8493 56.3589 42.0819 56.2555 42.3213 56.1246V56.2487C42.3213 56.3107 42.3418 56.3658 42.3829 56.4072C42.4239 56.4554 42.4786 56.4761 42.5333 56.4761H43.0053C43.0669 56.4761 43.1148 56.4554 43.1558 56.4072C43.1968 56.3589 43.2174 56.3107 43.2174 56.2487V51.4315C43.2174 51.3695 43.1968 51.3213 43.1558 51.273C43.1216 51.2248 43.0669 51.2041 43.0053 51.2041Z" fill="#8FA0BA"/>
<path d="M46.4113 55.7868H45.8847C45.7068 55.7868 45.5837 55.7524 45.5153 55.6903C45.4674 55.649 45.4127 55.5318 45.4127 55.2286V51.9758H46.3908C46.4524 51.9758 46.5003 51.9552 46.5482 51.9069C46.596 51.8656 46.6166 51.8104 46.6166 51.7484V51.4245C46.6166 51.3625 46.596 51.3143 46.5482 51.266C46.5003 51.2178 46.4524 51.1971 46.3908 51.1971H45.4127V50.2047C45.4127 50.1427 45.399 50.0945 45.358 50.06C45.3238 50.0256 45.2827 50.0049 45.2006 50.0049L44.7081 50.0807C44.5782 50.1014 44.5098 50.1841 44.5098 50.3081V55.2286C44.5098 55.4905 44.5371 55.7041 44.5919 55.8695C44.6466 56.0418 44.7287 56.1728 44.8381 56.2761C44.9475 56.3726 45.0843 56.4415 45.2485 56.476C45.4127 56.5104 45.6042 56.5311 45.8231 56.5311C45.912 56.5311 46.0146 56.5242 46.1241 56.5173C46.2335 56.5104 46.3429 56.4966 46.4387 56.4829C46.6029 56.4553 46.6371 56.3588 46.6371 56.283V55.9591C46.6439 55.8764 46.6029 55.7868 46.4113 55.7868Z" fill="#8FA0BA"/>
<path d="M50.9739 51.6105C50.8234 51.452 50.6387 51.328 50.4267 51.2522C50.2146 51.1764 49.9821 51.135 49.729 51.135C49.5306 51.135 49.2912 51.1557 49.0244 51.2039C48.7782 51.2453 48.5456 51.3142 48.3267 51.4038V49.5155C48.3267 49.4535 48.3062 49.4052 48.2652 49.357C48.2241 49.3088 48.1694 49.2881 48.1147 49.2881H47.6496C47.588 49.2881 47.5401 49.3088 47.4991 49.357C47.458 49.3984 47.4375 49.4535 47.4375 49.5155V56.2416C47.4375 56.3036 47.458 56.3518 47.4991 56.4001C47.5401 56.4483 47.5948 56.469 47.6496 56.469H48.1078C48.1694 56.469 48.2173 56.4483 48.2652 56.4001C48.313 56.3587 48.3336 56.3036 48.3336 56.2416V52.1825C48.4293 52.1412 48.5319 52.1067 48.6414 52.0791C48.7645 52.0447 48.8808 52.0171 48.9971 51.9964C49.1134 51.9758 49.2228 51.9551 49.3254 51.9482C49.428 51.9413 49.5169 51.9344 49.5922 51.9344C49.8863 51.9344 50.1257 52.0171 50.2967 52.1894C50.4677 52.3548 50.5566 52.6787 50.5566 53.1335V56.2416C50.5566 56.3036 50.5772 56.3587 50.625 56.4001C50.6729 56.4483 50.7208 56.469 50.7824 56.469H51.2338C51.2954 56.469 51.3433 56.4483 51.3911 56.4001C51.439 56.3587 51.4596 56.3036 51.4596 56.2416V53.1335C51.4596 52.789 51.4185 52.4788 51.3364 52.2307C51.2475 51.9827 51.1244 51.769 50.9739 51.6105Z" fill="#8FA0BA"/>
<path d="M56.1244 51.7825C55.9466 51.5758 55.7208 51.4173 55.4541 51.307C55.1873 51.1967 54.8795 51.1416 54.5306 51.1416C54.1818 51.1416 53.874 51.1967 53.614 51.307C53.3541 51.4173 53.1284 51.5827 52.9505 51.7825C52.7727 51.9893 52.6359 52.2373 52.547 52.5268C52.458 52.8093 52.4102 53.1332 52.4102 53.4847V54.2014C52.4102 54.5529 52.458 54.8699 52.547 55.1593C52.6359 55.4488 52.7727 55.6969 52.9505 55.8967C53.1284 56.1035 53.3541 56.262 53.614 56.3722C53.874 56.4825 54.1886 56.5376 54.5306 56.5376C54.8795 56.5376 55.1873 56.4825 55.4541 56.3722C55.7208 56.262 55.9466 56.0966 56.1244 55.8967C56.3022 55.69 56.439 55.4419 56.528 55.1593C56.6169 54.8699 56.6579 54.5529 56.6579 54.2014V53.4778C56.6579 53.1263 56.61 52.8093 56.528 52.5199C56.439 52.2373 56.3022 51.9893 56.1244 51.7825ZM54.5375 55.7382C54.1065 55.7382 53.7919 55.6004 53.6072 55.3316C53.4157 55.056 53.3199 54.6769 53.3199 54.2014V53.4778C53.3199 52.9954 53.4157 52.6164 53.614 52.3407C53.8056 52.0719 54.1202 51.9341 54.5443 51.9341C54.9752 51.9341 55.2899 52.0719 55.4814 52.3407C55.6798 52.6164 55.7755 52.9954 55.7755 53.4709V54.1876C55.7755 54.67 55.6729 55.0491 55.4746 55.3247C55.2694 55.6004 54.9616 55.7382 54.5375 55.7382Z" fill="#8FA0BA"/>
<path d="M59.7963 51.1348C59.5774 51.1348 59.3585 51.1692 59.1396 51.245C58.9412 51.3071 58.7292 51.4173 58.5103 51.562V51.4311C58.5103 51.3691 58.4898 51.3139 58.4487 51.2726C58.4077 51.2244 58.353 51.2037 58.2983 51.2037H57.8605C57.7989 51.2037 57.751 51.2244 57.71 51.2726C57.669 51.3208 57.6484 51.3691 57.6484 51.4311V56.2482C57.6484 56.3103 57.669 56.3585 57.71 56.4067C57.751 56.455 57.8058 56.4757 57.8605 56.4757H58.3188C58.3803 56.4757 58.4282 56.455 58.4761 56.4067C58.524 56.3654 58.5445 56.3103 58.5445 56.2482L58.524 52.327C58.7566 52.1823 58.9754 52.0858 59.1806 52.0238C59.379 51.9686 59.5911 51.9342 59.8031 51.9342C60.0083 51.9342 60.0357 51.8101 60.0357 51.7343V51.3415C60.0288 51.2106 59.9468 51.1348 59.7963 51.1348Z" fill="#8FA0BA"/>
<path d="M61.5561 51.2041H61.1046C61.0431 51.2041 60.9952 51.2248 60.9473 51.273C60.8994 51.3213 60.8789 51.3695 60.8789 51.4315V56.2487C60.8789 56.3107 60.8994 56.3658 60.9473 56.4072C60.9952 56.4554 61.0431 56.4761 61.1046 56.4761H61.5561C61.6176 56.4761 61.6655 56.4554 61.7134 56.4072C61.7613 56.3658 61.7818 56.3107 61.7818 56.2487V51.4315C61.7818 51.3695 61.7613 51.3144 61.7134 51.273C61.6655 51.2248 61.6108 51.2041 61.5561 51.2041Z" fill="#8FA0BA"/>
<path d="M61.5698 49.2393H61.091C61.0294 49.2393 60.9815 49.2599 60.9336 49.3082C60.8858 49.3495 60.8652 49.4047 60.8652 49.4667V50.2247C60.8652 50.2868 60.8858 50.335 60.9336 50.3832C60.9815 50.4246 61.0294 50.4522 61.091 50.4522H61.5698C61.6313 50.4522 61.6792 50.4315 61.7271 50.3832C61.775 50.335 61.7955 50.2868 61.7955 50.2247V49.4667C61.7955 49.4047 61.775 49.3495 61.7271 49.3082C61.6861 49.2599 61.6313 49.2393 61.5698 49.2393Z" fill="#8FA0BA"/>
<path d="M64.9817 55.7868H64.455C64.2771 55.7868 64.154 55.7524 64.0856 55.6903C64.0377 55.649 63.983 55.5318 63.983 55.2286V51.9758H64.9611C65.0227 51.9758 65.0706 51.9552 65.1185 51.9069C65.1663 51.8656 65.1869 51.8104 65.1869 51.7484V51.4245C65.1869 51.3625 65.1663 51.3143 65.1185 51.266C65.0706 51.2178 65.0227 51.1971 64.9611 51.1971H63.983V50.2047C63.983 50.1427 63.9693 50.0945 63.9283 50.06C63.8941 50.0256 63.853 50.0049 63.7709 50.0049L63.2784 50.0807C63.1485 50.1014 63.0801 50.1841 63.0801 50.3081V55.2286C63.0801 55.4905 63.1074 55.7041 63.1622 55.8695C63.2169 56.0349 63.299 56.1728 63.4084 56.2761C63.5178 56.3726 63.6547 56.4415 63.8188 56.476C63.983 56.5104 64.1745 56.5311 64.3934 56.5311C64.4823 56.5311 64.5849 56.5242 64.6944 56.5173C64.8038 56.5104 64.9133 56.4966 65.009 56.4829C65.1732 56.4553 65.2074 56.3588 65.2074 56.283V55.9591C65.2142 55.8764 65.1732 55.7868 64.9817 55.7868Z" fill="#8FA0BA"/>
<path d="M70.0231 51.2041H69.4964C69.4417 51.2041 69.3938 51.2248 69.3596 51.2592C69.3254 51.2937 69.2981 51.3281 69.2844 51.3764L68.1489 55.6698H68.0258C67.9984 55.6698 67.9779 55.6629 67.9505 55.6422C67.9368 55.6353 67.9095 55.6009 67.8821 55.4906L66.774 51.3902C66.7603 51.3488 66.7398 51.3075 66.7056 51.273C66.6714 51.2317 66.6304 51.211 66.5825 51.211H66.0626C65.9327 51.211 65.8574 51.2799 65.8574 51.4108C65.8574 51.4522 65.8643 51.4729 65.8711 51.4866L67.116 55.8076C67.1639 55.9523 67.2118 56.0764 67.2597 56.166C67.3144 56.2555 67.3691 56.3314 67.4307 56.3727C67.4922 56.4209 67.5606 56.4485 67.6359 56.4623C67.7043 56.4761 67.7727 56.483 67.8411 56.483H67.93L67.8479 56.8275C67.8137 56.986 67.7658 57.117 67.7111 57.2204C67.6632 57.3168 67.6017 57.3995 67.5333 57.4547C67.4649 57.5098 67.3828 57.5511 67.287 57.5718C67.1913 57.5925 67.075 57.6063 66.945 57.6063C66.8424 57.6063 66.6988 57.5994 66.5278 57.5856C66.3568 57.5718 66.22 57.558 66.0763 57.5443C65.8916 57.5443 65.8643 57.6614 65.8643 57.7303V58.0818C65.8643 58.1645 65.9053 58.1989 65.9395 58.2196C65.9805 58.2403 66.0284 58.2541 66.09 58.2679C66.1926 58.2954 66.3157 58.3161 66.4662 58.3299C66.6167 58.3437 66.7535 58.3506 66.8903 58.3506C67.1639 58.3506 67.3896 58.323 67.5812 58.2747C67.7727 58.2265 67.9369 58.1369 68.0668 58.0267C68.2036 57.9164 68.3131 57.7648 68.402 57.5856C68.4841 57.4064 68.5661 57.1859 68.6414 56.9309L70.1873 51.4935C70.1941 51.4729 70.201 51.4453 70.201 51.4108C70.2078 51.273 70.1394 51.2041 70.0231 51.2041Z" fill="#8FA0BA"/>
<path d="M75.6601 49.2671C75.5985 49.2533 75.5233 49.2395 75.4412 49.2258C75.3591 49.212 75.2565 49.2051 75.1265 49.2051C74.9213 49.2051 74.7298 49.2258 74.5656 49.2671C74.4015 49.3084 74.251 49.3843 74.1347 49.4876C74.0184 49.591 73.9295 49.7357 73.8679 49.908C73.8064 50.0803 73.779 50.3008 73.779 50.5558V51.2036H72.9035C72.8419 51.2036 72.794 51.2243 72.753 51.2587C72.7119 51.3001 72.6914 51.3483 72.6914 51.4103V51.6653C72.6914 51.748 72.7256 51.8514 72.9035 51.8721L73.779 51.9754V56.2551C73.779 56.3171 73.7995 56.3653 73.8474 56.4136C73.8953 56.4618 73.9432 56.4825 74.0047 56.4825H74.463C74.5246 56.4825 74.5725 56.4618 74.6135 56.4136C74.6546 56.3722 74.6751 56.3171 74.6751 56.2551V51.9823H75.6259C75.7627 51.9823 75.8379 51.9134 75.8379 51.7825V51.4103C75.8379 51.3483 75.8174 51.3001 75.7763 51.2587C75.7353 51.2174 75.6874 51.2036 75.6259 51.2036H74.6751V50.5558C74.6751 50.3077 74.7161 50.1423 74.7845 50.0596C74.8598 49.9769 75.0034 49.9356 75.2086 49.9356H75.6601C75.8379 49.9356 75.8653 49.8253 75.8653 49.7564V49.4463C75.8653 49.3636 75.7969 49.3016 75.6601 49.2671Z" fill="#8FA0BA"/>
<path d="M80.0775 51.7825C79.8997 51.5758 79.6739 51.4173 79.4072 51.307C79.1404 51.1967 78.8326 51.1416 78.4837 51.1416C78.1349 51.1416 77.8271 51.1967 77.5672 51.307C77.3004 51.4173 77.0815 51.5827 76.9037 51.7825C76.7258 51.9893 76.589 52.2373 76.5001 52.5268C76.4112 52.8162 76.3633 53.1332 76.3633 53.4847V54.2014C76.3633 54.546 76.4112 54.8699 76.5001 55.1593C76.589 55.4488 76.7258 55.6969 76.9037 55.8967C77.0815 56.1035 77.3072 56.262 77.5672 56.3722C77.8271 56.4825 78.1349 56.5376 78.4837 56.5376C78.8326 56.5376 79.1404 56.4825 79.4072 56.3722C79.6739 56.262 79.8997 56.0966 80.0775 55.8967C80.2554 55.69 80.3922 55.4419 80.4811 55.1593C80.57 54.8699 80.6179 54.5529 80.6179 54.2014V53.4778C80.6179 53.1263 80.57 52.8093 80.4811 52.5199C80.3922 52.2373 80.2554 51.9893 80.0775 51.7825ZM78.4837 55.7382C78.0528 55.7382 77.7382 55.6004 77.5535 55.3316C77.362 55.056 77.2662 54.6769 77.2662 54.2014V53.4778C77.2662 52.9954 77.3688 52.6164 77.5603 52.3407C77.7518 52.0719 78.0665 51.9341 78.4906 51.9341C78.9215 51.9341 79.2362 52.0719 79.4277 52.3407C79.6192 52.6164 79.7218 52.9954 79.7218 53.4709V54.1876C79.7218 54.67 79.6192 55.0491 79.4209 55.3247C79.2225 55.6004 78.9078 55.7382 78.4837 55.7382Z" fill="#8FA0BA"/>
<path d="M83.7513 51.1348C83.5325 51.1348 83.3136 51.1692 83.0947 51.245C82.8963 51.3071 82.6843 51.4173 82.4654 51.562V51.4311C82.4654 51.3691 82.4449 51.3139 82.4038 51.2726C82.3628 51.2244 82.3081 51.2037 82.2533 51.2037H81.8156C81.754 51.2037 81.7061 51.2244 81.6651 51.2726C81.624 51.3208 81.6035 51.3691 81.6035 51.4311V56.2482C81.6035 56.3103 81.624 56.3585 81.6651 56.4067C81.7061 56.455 81.7608 56.4757 81.8156 56.4757H82.2739C82.3354 56.4757 82.3833 56.455 82.4312 56.4067C82.4791 56.3654 82.4996 56.3103 82.4996 56.2482L82.4791 52.327C82.7116 52.1823 82.9305 52.0858 83.1289 52.0238C83.3272 51.9686 83.5393 51.9342 83.7513 51.9342C83.9566 51.9342 83.9839 51.8101 83.9839 51.7343V51.3415C83.9839 51.2106 83.9018 51.1348 83.7513 51.1348Z" fill="#8FA0BA"/>
<path d="M90.5435 53.5881C90.4272 53.4365 90.2699 53.2849 90.0784 53.1264C89.8937 52.9748 89.6611 52.8163 89.3943 52.6509L88.5325 52.134C88.1836 51.9204 87.9237 51.7343 87.7664 51.5689C87.609 51.4104 87.5338 51.2313 87.5338 51.0176C87.5338 50.6868 87.6364 50.4594 87.8416 50.3423C88.0537 50.2182 88.4025 50.1562 88.8813 50.1562C89.1549 50.1562 89.4422 50.1631 89.7363 50.1769C90.0305 50.1906 90.2836 50.2044 90.5093 50.2113C90.6324 50.2113 90.7008 50.1424 90.7008 50.0253V49.6187C90.7008 49.5428 90.6666 49.4533 90.5093 49.4257C90.4204 49.4119 90.3109 49.3981 90.181 49.3843C90.051 49.3706 89.9074 49.3568 89.7637 49.3499C89.6132 49.343 89.4696 49.3292 89.3123 49.3223C89.1549 49.3154 89.0113 49.3154 88.8745 49.3154C88.1494 49.3154 87.5817 49.4533 87.1918 49.7289C86.7951 50.0046 86.5898 50.4387 86.5898 51.0245C86.5898 51.4104 86.6993 51.7412 86.9182 52.0169C87.1371 52.2857 87.4654 52.5613 87.8963 52.8232L88.8061 53.3814C89.0181 53.5123 89.196 53.6295 89.3396 53.7329C89.4833 53.8362 89.5995 53.9327 89.6816 54.0292C89.7637 54.1188 89.8253 54.2153 89.8595 54.3049C89.8937 54.3944 89.9142 54.5047 89.9142 54.615C89.9142 54.7735 89.8937 54.9251 89.8526 55.056C89.8116 55.187 89.7432 55.3041 89.6406 55.3937C89.538 55.4902 89.4012 55.5591 89.2165 55.6142C89.0386 55.6694 88.8061 55.6969 88.5256 55.6969C88.423 55.6969 88.2999 55.6969 88.1631 55.69L87.7527 55.6832C87.609 55.6832 87.4722 55.6763 87.3423 55.6694C87.2055 55.6625 87.0892 55.6556 86.9524 55.6418C86.9045 55.6418 86.8566 55.6556 86.8156 55.69C86.7745 55.7245 86.754 55.7727 86.754 55.8348V56.2138C86.754 56.2689 86.7677 56.3172 86.7882 56.3516C86.8156 56.3861 86.8703 56.4068 86.9592 56.4205C87.1644 56.455 87.397 56.4826 87.6432 56.5101C87.8963 56.5377 88.1905 56.5515 88.5188 56.5515C88.9839 56.5515 89.3738 56.4963 89.6748 56.3861C89.9758 56.2758 90.222 56.1242 90.3999 55.945C90.5709 55.7658 90.7008 55.5522 90.7692 55.3179C90.8376 55.0905 90.8718 54.8562 90.8718 54.6288C90.8718 54.4358 90.8445 54.2566 90.7966 54.0912C90.7487 53.9051 90.6666 53.7398 90.5435 53.5881Z" fill="#8FA0BA"/>
<path d="M93.7043 55.7868H93.1776C92.9998 55.7868 92.8766 55.7524 92.8082 55.6903C92.7604 55.649 92.7056 55.5318 92.7056 55.2286V51.9758H93.6838C93.7454 51.9758 93.7932 51.9552 93.8411 51.9069C93.889 51.8656 93.9095 51.8104 93.9095 51.7484V51.4245C93.9095 51.3625 93.889 51.3143 93.8411 51.266C93.7932 51.2178 93.7454 51.1971 93.6838 51.1971H92.7056V50.2047C92.7056 50.1427 92.692 50.0945 92.6509 50.06C92.6167 50.0256 92.5757 50.0049 92.4936 50.0049L92.0011 50.0807C91.8711 50.1014 91.8027 50.1841 91.8027 50.3081V55.2286C91.8027 55.4905 91.8301 55.7041 91.8848 55.8695C91.9395 56.0418 92.0216 56.1728 92.1311 56.2761C92.2405 56.3726 92.3773 56.4415 92.5415 56.476C92.7056 56.5104 92.8972 56.5311 93.1161 56.5311C93.205 56.5311 93.3076 56.5242 93.417 56.5173C93.5265 56.5104 93.6359 56.4966 93.7317 56.4829C93.8958 56.4553 93.93 56.3588 93.93 56.283V55.9591C93.9369 55.8764 93.8958 55.7868 93.7043 55.7868Z" fill="#8FA0BA"/>
<path d="M96.6663 51.1348C96.3516 51.1348 96.0712 51.1486 95.8386 51.1761C95.6129 51.2037 95.4008 51.2312 95.2025 51.2588C95.0178 51.2864 94.9768 51.3898 94.9768 51.4725V51.8032C94.9768 51.879 94.9973 51.9342 95.0451 51.9549C95.0862 51.9755 95.1272 51.9893 95.1819 51.9893H95.2298C95.4145 51.9686 95.6266 51.9549 95.8591 51.9411C96.0917 51.9273 96.3653 51.9135 96.6663 51.9135C97.022 51.9135 97.2751 51.9893 97.4187 52.1409C97.5623 52.2925 97.6376 52.5613 97.6376 52.9472V53.2918H96.9809C96.5637 53.2918 96.2011 53.3263 95.9139 53.3883C95.6197 53.4503 95.3803 53.5537 95.2025 53.6846C95.0178 53.8156 94.8878 53.9878 94.8057 54.1808C94.7237 54.3738 94.6895 54.6081 94.6895 54.8631V54.9802C94.6895 55.2765 94.7305 55.5315 94.8194 55.7314C94.9083 55.9312 95.0246 56.0966 95.1683 56.2138C95.3119 56.3378 95.4829 56.4274 95.6744 56.4688C95.8591 56.517 96.0575 56.5446 96.2627 56.5446C96.5295 56.5446 96.7826 56.4963 97.022 56.4067C97.2409 56.324 97.4597 56.2207 97.665 56.1035V56.2482C97.665 56.3103 97.6855 56.3585 97.7334 56.4067C97.7812 56.455 97.8291 56.4757 97.8907 56.4757H98.3216C98.3832 56.4757 98.4311 56.455 98.4789 56.4067C98.5268 56.3585 98.5473 56.3103 98.5473 56.2482V52.9472C98.5473 52.389 98.4037 51.9411 98.1096 51.6172C97.8018 51.3002 97.3229 51.1348 96.6663 51.1348ZM95.5718 54.8493C95.5718 54.6839 95.5924 54.546 95.6334 54.4358C95.6744 54.3255 95.7428 54.2359 95.8455 54.167C95.9481 54.0981 96.0917 54.043 96.2696 54.0085C96.4542 53.9741 96.6936 53.9603 96.9672 53.9603H97.6239V55.4213C97.405 55.5384 97.1998 55.628 97.0083 55.69C96.8168 55.7521 96.6047 55.7796 96.3927 55.7796C96.1259 55.7796 95.9207 55.7245 95.7771 55.6142C95.6403 55.504 95.565 55.2834 95.565 54.9595V54.8493H95.5718Z" fill="#8FA0BA"/>
<path d="M101.57 55.7868H101.043C100.865 55.7868 100.742 55.7524 100.673 55.6903C100.626 55.649 100.571 55.5318 100.571 55.2286V51.9758H101.549C101.611 51.9758 101.658 51.9552 101.706 51.9069C101.754 51.8656 101.775 51.8104 101.775 51.7484V51.4245C101.775 51.3625 101.754 51.3143 101.706 51.266C101.658 51.2178 101.611 51.1971 101.549 51.1971H100.571V50.2047C100.571 50.1427 100.557 50.0945 100.516 50.06C100.482 50.0256 100.441 50.0049 100.359 50.0049L99.8663 50.0807C99.7364 50.1014 99.668 50.1841 99.668 50.3081V55.2286C99.668 55.4905 99.6953 55.7041 99.75 55.8695C99.8048 56.0349 99.8869 56.1728 99.9963 56.2761C100.106 56.3726 100.243 56.4415 100.407 56.476C100.571 56.5104 100.762 56.5311 100.981 56.5311C101.07 56.5311 101.173 56.5242 101.282 56.5173C101.392 56.5104 101.501 56.4966 101.597 56.4829C101.761 56.4553 101.795 56.3588 101.795 56.283V55.9591C101.802 55.8764 101.761 55.7868 101.57 55.7868Z" fill="#8FA0BA"/>
<path d="M103.328 49.2393H102.849C102.787 49.2393 102.739 49.2599 102.691 49.3082C102.644 49.3495 102.623 49.4047 102.623 49.4667V50.2247C102.623 50.2868 102.644 50.335 102.691 50.3832C102.739 50.4246 102.787 50.4522 102.849 50.4522H103.328C103.389 50.4522 103.437 50.4315 103.485 50.3832C103.526 50.335 103.553 50.2868 103.553 50.2247V49.4667C103.553 49.4047 103.533 49.3495 103.485 49.3082C103.444 49.2599 103.389 49.2393 103.328 49.2393Z" fill="#8FA0BA"/>
<path d="M103.314 51.2041H102.862C102.801 51.2041 102.753 51.2248 102.705 51.273C102.657 51.3213 102.637 51.3695 102.637 51.4315V56.2487C102.637 56.3107 102.657 56.3658 102.705 56.4072C102.753 56.4485 102.801 56.4761 102.862 56.4761H103.314C103.375 56.4761 103.423 56.4554 103.471 56.4072C103.519 56.3658 103.54 56.3107 103.54 56.2487V51.4315C103.54 51.3695 103.519 51.3144 103.471 51.273C103.423 51.2248 103.369 51.2041 103.314 51.2041Z" fill="#8FA0BA"/>
<path d="M106.954 53.6708L106.023 53.1126C105.811 52.9886 105.647 52.8783 105.545 52.7749C105.442 52.6785 105.394 52.5613 105.394 52.4304C105.394 52.2029 105.463 52.072 105.613 52.01C105.77 51.948 105.976 51.9204 106.235 51.9204C106.495 51.9204 106.762 51.9273 107.036 51.948C107.309 51.9686 107.521 51.9824 107.72 51.9962C107.843 51.9962 107.911 51.9273 107.911 51.7964V51.4862C107.911 51.3966 107.877 51.2864 107.706 51.2588C107.487 51.2175 107.248 51.1899 107.002 51.1692C106.755 51.1486 106.495 51.1348 106.235 51.1348C105.989 51.1348 105.763 51.1554 105.551 51.1899C105.339 51.2312 105.162 51.3002 105.004 51.3966C104.847 51.5 104.724 51.631 104.635 51.7964C104.546 51.9617 104.498 52.1685 104.498 52.4235C104.498 52.7336 104.587 53.0024 104.772 53.216C104.949 53.4296 105.182 53.6295 105.476 53.8087L106.42 54.3738C106.687 54.5323 106.872 54.6701 106.967 54.7735C107.063 54.8768 107.111 54.994 107.111 55.1249C107.111 55.373 107.043 55.5384 106.892 55.6211C106.742 55.7107 106.516 55.7589 106.215 55.7589C106.126 55.7589 106.023 55.7589 105.907 55.7521C105.791 55.7452 105.661 55.7383 105.524 55.7245C105.387 55.7176 105.25 55.7038 105.12 55.69C104.984 55.6762 104.861 55.6625 104.744 55.6487H104.71C104.655 55.6487 104.601 55.6625 104.566 55.6969C104.525 55.7314 104.505 55.7727 104.505 55.8279V56.1586C104.505 56.2345 104.546 56.3378 104.731 56.3792C104.84 56.4067 104.97 56.4343 105.114 56.4481C105.25 56.4619 105.387 56.4757 105.524 56.4894C105.661 56.5032 105.791 56.5101 105.914 56.5101C106.037 56.517 106.14 56.517 106.229 56.517C106.489 56.517 106.735 56.4894 106.954 56.4343C107.173 56.3792 107.364 56.2965 107.521 56.1862C107.679 56.076 107.802 55.9243 107.891 55.7452C107.98 55.566 108.021 55.3523 108.021 55.1111C108.021 54.8286 107.946 54.5667 107.788 54.3462C107.617 54.1394 107.344 53.9051 106.954 53.6708Z" fill="#8FA0BA"/>
<path d="M110.859 55.7868H110.332C110.154 55.7868 110.031 55.7524 109.963 55.6903C109.915 55.649 109.86 55.5318 109.86 55.2286V51.9758H110.838C110.9 51.9758 110.948 51.9552 110.995 51.9069C111.043 51.8656 111.064 51.8104 111.064 51.7484V51.4245C111.064 51.3625 111.043 51.3143 110.995 51.266C110.954 51.2178 110.9 51.1971 110.838 51.1971H109.86V50.2047C109.86 50.1427 109.846 50.0945 109.805 50.06C109.771 50.0256 109.73 50.0049 109.648 50.0049L109.155 50.0807C109.025 50.1014 108.957 50.1841 108.957 50.3081V55.2286C108.957 55.4905 108.984 55.7041 109.039 55.8695C109.094 56.0349 109.176 56.1728 109.285 56.2761C109.395 56.3726 109.532 56.4415 109.696 56.476C109.86 56.5104 110.051 56.5311 110.27 56.5311C110.359 56.5311 110.462 56.5242 110.571 56.5173C110.681 56.5104 110.79 56.4966 110.886 56.4829C111.05 56.4553 111.084 56.3588 111.084 56.283V55.9591C111.091 55.8764 111.05 55.7868 110.859 55.7868Z" fill="#8FA0BA"/>
<path d="M112.611 51.2109H112.159C112.098 51.2109 112.05 51.2316 112.002 51.2799C111.961 51.3281 111.934 51.3763 111.934 51.4384V56.2555C111.934 56.3175 111.954 56.3727 112.002 56.414C112.05 56.4622 112.098 56.4829 112.159 56.4829H112.611C112.672 56.4829 112.72 56.4622 112.768 56.414C112.816 56.3727 112.837 56.3175 112.837 56.2555V51.4384C112.837 51.3763 112.816 51.3212 112.768 51.2799C112.72 51.2316 112.666 51.2109 112.611 51.2109Z" fill="#8FA0BA"/>
<path d="M112.63 49.2461H112.152C112.09 49.2461 112.042 49.2668 111.994 49.315C111.946 49.3564 111.926 49.4115 111.926 49.4735V50.2316C111.926 50.2936 111.946 50.3418 111.994 50.3901C112.042 50.4383 112.09 50.459 112.152 50.459H112.63C112.692 50.459 112.74 50.4383 112.788 50.3901C112.836 50.3487 112.856 50.2936 112.856 50.2316V49.4735C112.856 49.4115 112.836 49.3564 112.788 49.315C112.74 49.2668 112.685 49.2461 112.63 49.2461Z" fill="#8FA0BA"/>
<path d="M117.077 51.2518C116.913 51.2174 116.735 51.1967 116.537 51.176C116.332 51.1553 116.12 51.1484 115.901 51.1484C115.579 51.1484 115.285 51.2036 115.032 51.3138C114.779 51.4241 114.56 51.5895 114.389 51.7893C114.218 51.9892 114.088 52.2373 113.999 52.5267C113.91 52.8162 113.869 53.1332 113.869 53.4846V54.222C113.869 54.5735 113.917 54.8905 113.999 55.1799C114.088 55.4694 114.225 55.7175 114.396 55.9173C114.574 56.1172 114.786 56.2757 115.039 56.386C115.292 56.4962 115.579 56.5513 115.901 56.5513C116.12 56.5513 116.338 56.5445 116.537 56.5238C116.742 56.5031 116.92 56.4824 117.077 56.448C117.159 56.4342 117.221 56.4066 117.248 56.3653C117.276 56.3239 117.296 56.2757 117.296 56.1999V55.8622C117.296 55.7864 117.262 55.745 117.235 55.7244C117.193 55.6968 117.152 55.683 117.098 55.683H117.057C116.851 55.7106 116.667 55.7244 116.496 55.7313C116.325 55.7382 116.126 55.745 115.894 55.745C115.524 55.745 115.244 55.621 115.052 55.3729C114.861 55.1248 114.758 54.732 114.758 54.2083V53.4778C114.758 52.954 114.861 52.5612 115.052 52.3131C115.251 52.065 115.531 51.941 115.894 51.941C116.126 51.941 116.325 51.9478 116.496 51.9547C116.667 51.9616 116.851 51.9823 117.064 52.003H117.098C117.152 52.003 117.193 51.9892 117.235 51.9616C117.262 51.941 117.296 51.8996 117.296 51.8238V51.4861C117.296 51.4103 117.282 51.3483 117.248 51.3138C117.214 51.2863 117.159 51.2656 117.077 51.2518Z" fill="#8FA0BA"/>
<path d="M120.545 53.6845L119.615 53.1263C119.403 53.0022 119.239 52.8851 119.136 52.7886C119.034 52.6921 118.986 52.575 118.986 52.444C118.986 52.2166 119.054 52.0857 119.205 52.0237C119.362 51.9616 119.567 51.9341 119.827 51.9341C120.087 51.9341 120.354 51.941 120.628 51.9616C120.901 51.9823 121.113 51.9961 121.312 52.0099C121.435 52.0099 121.503 51.941 121.503 51.81V51.4999C121.503 51.4103 121.469 51.3001 121.298 51.2725C121.079 51.2311 120.84 51.2036 120.593 51.1829C120.347 51.1622 120.087 51.1484 119.827 51.1484C119.581 51.1484 119.355 51.1691 119.143 51.2036C118.938 51.2449 118.753 51.3138 118.596 51.4103C118.439 51.5137 118.316 51.6446 118.227 51.81C118.138 51.9754 118.09 52.189 118.09 52.4371C118.09 52.7473 118.179 53.016 118.363 53.2297C118.541 53.4433 118.774 53.6431 119.068 53.8223L120.012 54.3874C120.279 54.5459 120.463 54.6838 120.559 54.7871C120.655 54.8905 120.703 55.0077 120.703 55.1386C120.703 55.3867 120.634 55.5521 120.484 55.6348C120.333 55.7244 120.108 55.7726 119.807 55.7726C119.718 55.7726 119.615 55.7726 119.499 55.7657C119.383 55.7588 119.253 55.7519 119.116 55.7382C118.979 55.7313 118.842 55.7175 118.712 55.7037C118.576 55.6899 118.452 55.6761 118.336 55.6623H118.302C118.247 55.6623 118.192 55.6761 118.158 55.7106C118.117 55.745 118.097 55.7864 118.097 55.8415V56.1723C118.097 56.2481 118.138 56.3515 118.322 56.3928C118.432 56.4204 118.562 56.448 118.705 56.4618C118.842 56.4755 118.979 56.4893 119.116 56.5031C119.253 56.5169 119.383 56.5238 119.506 56.5238C119.629 56.5307 119.731 56.5307 119.82 56.5307C120.08 56.5307 120.327 56.5031 120.545 56.448C120.764 56.3928 120.956 56.3102 121.113 56.1999C121.271 56.0896 121.394 55.938 121.483 55.7588C121.572 55.5797 121.613 55.366 121.613 55.1248C121.613 54.8423 121.537 54.5804 121.38 54.3599C121.209 54.1462 120.935 53.9119 120.545 53.6845Z" fill="#8FA0BA"/>
</svg>
